<svg width="19" height="17" viewBox="0 0 19 17" fill="none" xmlns="http://www.w3.org/2000/svg">
<path d="M9.5003 4.45235C9.28169 4.45235 9.10427 4.63346 9.10427 4.85731C9.10427 5.08085 9.28169 5.26196 9.5003 5.26196C9.71891 5.26196 9.89603 5.08085 9.89603 4.85731C9.89603 4.6335 9.71887 4.45235 9.5003 4.45235Z" fill="#1F1F1F"/>
<path d="M9.5003 5.66662C9.28169 5.66662 9.10427 5.84773 9.10427 6.07158C9.10427 6.29511 9.28169 6.47623 9.5003 6.47623C9.71891 6.47623 9.89603 6.29511 9.89603 6.07158C9.89603 5.84777 9.71887 5.66662 9.5003 5.66662Z" fill="#1F1F1F"/>
<path d="M14.25 1.96605L11.875 0H7.1253L4.7503 1.96605L0 4.04769L1.58353 8.90477L3.95853 8.09516V17H15.0421V8.09516L17.4171 8.90477L19 4.04769L14.25 1.96605ZM12.8816 1.87445L10.5744 3.31966L10.0279 2.29869L11.839 1.01179L12.8816 1.87445ZM10.7362 0.809538L9.5003 1.68795L8.26411 0.809576L10.7362 0.809538ZM7.16126 1.01171L8.97238 2.29861L8.42587 3.31959L6.119 1.87438L7.16126 1.01171ZM16.9161 7.88088L14.25 6.97222V16.1901H4.7503V6.97218L2.08421 7.8808L0.981654 4.49826L5.57713 2.48417L8.7213 4.45379L9.5003 2.99849L10.2793 4.45383L13.4232 2.48421L18.0189 4.4983L16.9161 7.88088Z" fill="#1F1F1F"/>
</svg>
