<svg width="93" height="86" viewBox="0 0 93 86" fill="none" xmlns="http://www.w3.org/2000/svg">
<path d="M81.3557 18.5246L81.1917 17.7895L77.094 18.7144C75.964 18.9696 75.2061 20.1117 74.875 21.7444C74.5834 21.4194 74.2614 21.1187 73.8802 20.8787C72.7973 20.1952 71.5169 19.975 70.2776 20.2529L70.185 20.2742C70.4416 19.5163 70.5252 18.684 70.3718 17.832C70.0999 16.3299 69.1795 15.004 67.9098 14.2856L64.8768 12.5694L65.703 10.7195C66.35 9.27206 66.2877 7.55735 65.5344 6.13272C64.8191 4.77947 63.5888 3.85453 62.1566 3.59785L42.4943 0.0712129C41.0742 -0.183944 39.6633 0.253468 38.6199 1.27258C37.4808 2.3813 36.9507 4.02615 37.2028 5.671L40.4622 26.9858L11.6036 33.5014C10.3627 33.7824 9.30109 34.5326 8.61915 35.614C8.33969 36.0545 8.15896 36.5329 8.03594 37.025C6.95304 35.611 5.65143 34.844 4.41969 35.1235L0 36.1213L11.0978 85.2649L11.2619 86L15.6815 85.0022C16.9148 84.7242 17.7623 83.4803 18.1344 81.7474C19.0305 82.8318 20.3716 83.4985 21.8129 83.4985C22.1607 83.4985 22.5131 83.4606 22.8654 83.3801L81.5395 70.1316C82.7803 69.8507 83.8404 69.1004 84.5239 68.019C84.7593 67.6454 84.9188 67.2444 85.0433 66.8328C85.0464 66.8374 85.0479 66.8419 85.0509 66.845C85.9349 68.0205 86.9221 68.6447 87.8759 68.6447C88.0353 68.6447 88.1948 68.6265 88.3528 68.5916L92.449 67.6666L81.3557 18.5246ZM67.1656 15.5963C68.0495 16.0975 68.6935 17.0331 68.8879 18.1008C69.0641 19.082 68.8439 20.0312 68.2789 20.7055L53.6362 38.1838L44.0313 40.3527L43.9979 40.1431L46.8305 8.36383C46.8669 7.96438 46.9839 7.60595 47.1403 7.28093L64.4895 17.6938L64.9315 16.9556L47.6263 6.56861C47.7979 6.39547 47.9893 6.24359 48.208 6.12816C48.9401 5.74391 49.821 5.77884 50.6214 6.22992L67.1656 15.5963ZM70.4113 55.5679C70.7697 57.1535 70.4796 58.7938 69.5911 60.182C68.7026 61.5732 67.3296 62.5392 65.7212 62.9037L31.4831 70.6344C28.1645 71.3816 24.8429 69.3191 24.0987 66.0263L20.1726 48.6438C19.4299 45.351 21.5335 42.0613 24.8626 41.308L42.0463 37.4275C42.0432 37.391 42.0448 37.353 42.0417 37.3151L42.4807 40.1886L42.4336 40.7126L27.6314 44.0555C25.0009 44.6493 23.3423 47.2753 23.9347 49.9074L26.951 63.2667C27.4643 65.5373 29.4889 67.0834 31.7261 67.0834C32.0815 67.0834 32.4445 67.0455 32.8044 66.9634L62.8401 60.1805C64.1113 59.8935 65.1957 59.1249 65.8959 58.0177C66.5961 56.909 66.8223 55.5998 66.5368 54.3286L63.5205 40.9708C63.235 39.7011 62.4665 38.6152 61.3577 37.915C60.249 37.2163 58.9413 36.987 57.6686 37.2741L56.0556 37.6386L59.4942 33.5348C59.8207 33.4832 60.1473 33.4254 60.4738 33.4254C61.6266 33.4254 62.7581 33.7474 63.7605 34.3732C65.1578 35.2465 66.1252 36.6012 66.4821 38.1869L67.3646 42.0947L68.124 41.6573C68.6722 41.3414 69.1567 41.1439 69.6504 41.0316C72.6029 40.3663 75.5524 42.1995 76.2115 45.1247C76.8737 48.0499 75.0026 50.9736 72.0455 51.6418C71.5595 51.7512 71.0188 51.7816 70.4006 51.7315L69.5258 51.6616L70.4113 55.5679ZM63.1211 5.61177C63.557 5.91857 63.9321 6.32864 64.2009 6.83744C64.7386 7.85503 64.7857 9.07614 64.3255 10.1028L63.5569 11.8221L52.4606 5.54039L63.1211 5.61177ZM38.6913 5.44319C38.6654 5.27308 38.6746 5.1045 38.6715 4.93591L43.1003 5.53583L43.2158 4.68227L38.7535 4.07779C38.8963 3.42015 39.1955 2.81415 39.6694 2.35244C40.2328 1.80416 40.9543 1.50951 41.7076 1.50951C41.8792 1.50951 42.0524 1.5247 42.2255 1.55659L58.6725 4.50609L49.9896 4.44838C49.1406 4.29498 48.2824 4.38914 47.5079 4.79618C46.2776 5.44167 45.462 6.72657 45.3284 8.23321L43.0426 33.8932L38.6913 5.44319ZM88.0232 67.1229C87.5569 67.2308 86.8841 66.7751 86.2553 65.9398C85.7116 65.2168 85.2332 64.2402 84.8641 63.1589L84.4814 61.4639C84.454 61.473 84.4267 61.4821 84.4009 61.4912C83.9346 61.6522 83.4531 61.7798 83.0051 61.9833C82.993 61.9879 82.9823 61.9879 82.9717 61.9924L82.9945 62.0942C83.1114 62.6151 83.2587 63.1179 83.4228 63.6054L83.681 64.7506C84.0789 66.5108 82.9687 68.265 81.2084 68.663L22.5328 81.9099C20.768 82.3078 19.0199 81.1991 18.6204 79.4388L18.019 76.7764C17.9461 76.8052 17.8686 76.8128 17.7957 76.8386C17.3917 76.9829 16.9847 77.112 16.5609 77.1819C17.2854 80.502 16.5275 83.2662 15.3489 83.532L12.4009 84.1972L10.9216 77.6451L13.6858 77.0209L13.4489 75.9714L10.6847 76.5956L9.68838 72.182L12.4526 71.5578L12.2157 70.5083L9.45145 71.1325L8.45512 66.7189L11.2193 66.0947L10.9824 65.0452L8.21819 65.6694L7.22034 61.2543L9.98455 60.6301L9.74762 59.5806L6.98341 60.2048L5.98708 55.7912L8.75129 55.167L8.51284 54.116L5.74863 54.7402L4.7523 50.3266L7.51651 49.7024L7.27958 48.6529L4.51537 49.2771L3.51904 44.8635L6.28477 44.2393L6.04784 43.1898L3.28211 43.814L1.80281 37.2619L4.75382 36.5967C5.94608 36.3127 7.84001 38.5392 8.59941 41.8942L8.62219 41.996C8.6389 41.9884 8.6556 41.9838 8.67231 41.9747C9.1158 41.7606 9.5684 41.5723 10.0347 41.4097L9.46512 38.887C9.27375 38.038 9.42715 37.1632 9.89494 36.422C10.3627 35.6808 11.0887 35.166 11.9377 34.9746L40.6915 28.4818L41.864 36.1486L24.5786 40.0519C20.5569 40.9602 18.0144 44.944 18.9135 48.9308L22.8396 66.3134C23.6172 69.7489 26.6958 72.0833 30.107 72.0818C30.6553 72.0818 31.2127 72.021 31.7701 71.895L66.0083 64.1643C67.9493 63.7254 69.6093 62.5589 70.6816 60.8792C71.7569 59.1978 72.1078 57.2097 71.6734 55.2839L71.1661 53.0407C71.5777 53.03 71.965 52.9814 72.3356 52.8994C75.9883 52.0747 78.2953 48.4585 77.4782 44.8377C76.6611 41.2169 73.0221 38.9478 69.3709 39.7694C69.0018 39.853 68.6328 39.976 68.2546 40.1431L67.7488 37.8998C67.3144 35.974 66.1419 34.3322 64.45 33.2751C63.2851 32.5476 61.9728 32.1983 60.6378 32.174L69.1097 22.0618L70.6117 21.7231C70.8502 21.6685 71.0917 21.6426 71.3316 21.6426C71.9422 21.6426 72.5452 21.8158 73.0768 22.153C73.8194 22.6223 74.3328 23.3467 74.5257 24.1957L74.8158 25.4776C74.8674 25.8634 74.9206 26.2507 75.0056 26.6516C75.3959 26.5119 75.7924 26.398 76.2039 26.3357C76.2905 26.3069 76.3756 26.281 76.4621 26.2537C76.4849 26.2461 76.5062 26.24 76.529 26.2324L76.2981 25.2088C75.9427 22.3489 76.6368 20.3638 77.4281 20.1861L80.0541 19.5923L81.5334 26.1428L79.076 26.6972L79.3129 27.7467L81.7703 27.1923L82.7666 31.6059L80.3092 32.1603L80.5462 33.2098L83.0036 32.6554L83.9999 37.069L81.5425 37.6249L81.7794 38.6744L84.2368 38.1185L85.2332 42.5336L82.7758 43.088L83.0127 44.1375L85.4701 43.5831L86.4664 47.9967L84.009 48.5511L84.246 49.6006L86.7034 49.0462L87.6997 53.4598L85.2423 54.0142L85.4792 55.0637L87.9366 54.5093L88.933 58.9229L86.474 59.4788L86.711 60.5283L89.1699 59.9724L90.6492 66.5245L88.0232 67.1229Z" fill="#FFC9C2"/>
<path d="M81.3557 18.5246L81.1917 17.7895L77.094 18.7144C75.964 18.9696 75.2061 20.1117 74.875 21.7444C74.5834 21.4194 74.2614 21.1187 73.8802 20.8787C72.7973 20.1952 71.5169 19.975 70.2776 20.2529L70.185 20.2742C70.4416 19.5163 70.5252 18.684 70.3718 17.832C70.0999 16.3299 69.1795 15.004 67.9098 14.2856L64.8768 12.5694L65.703 10.7195C66.35 9.27206 66.2877 7.55735 65.5344 6.13272C64.8191 4.77947 63.5888 3.85453 62.1566 3.59785L42.4943 0.0712129C41.0742 -0.183944 39.6633 0.253468 38.6199 1.27258C37.4808 2.3813 36.9507 4.02615 37.2028 5.671L40.4622 26.9858L11.6036 33.5014C10.3627 33.7824 9.30109 34.5326 8.61915 35.614C8.33969 36.0545 8.15896 36.5329 8.03594 37.025C6.95304 35.611 5.65143 34.844 4.41969 35.1235L0 36.1213L11.0978 85.2649L11.2619 86L15.6815 85.0022C16.9148 84.7242 17.7623 83.4803 18.1344 81.7474C19.0305 82.8318 20.3716 83.4985 21.8129 83.4985C22.1607 83.4985 22.5131 83.4606 22.8654 83.3801L81.5395 70.1316C82.7803 69.8507 83.8404 69.1004 84.5239 68.019C84.7593 67.6454 84.9188 67.2444 85.0433 66.8328C85.0464 66.8374 85.0479 66.8419 85.0509 66.845C85.9349 68.0205 86.9221 68.6447 87.8759 68.6447C88.0353 68.6447 88.1948 68.6265 88.3528 68.5916L92.449 67.6666L81.3557 18.5246ZM67.1656 15.5963C68.0495 16.0975 68.6935 17.0331 68.8879 18.1008C69.0641 19.082 68.8439 20.0312 68.2789 20.7055L53.6362 38.1838L44.0313 40.3527L43.9979 40.1431L46.8305 8.36383C46.8669 7.96438 46.9839 7.60595 47.1403 7.28093L64.4895 17.6938L64.9315 16.9556L47.6263 6.56861C47.7979 6.39547 47.9893 6.24359 48.208 6.12816C48.9401 5.74391 49.821 5.77884 50.6214 6.22992L67.1656 15.5963ZM70.4113 55.5679C70.7697 57.1535 70.4796 58.7938 69.5911 60.182C68.7026 61.5732 67.3296 62.5392 65.7212 62.9037L31.4831 70.6344C28.1645 71.3816 24.8429 69.3191 24.0987 66.0263L20.1726 48.6438C19.4299 45.351 21.5335 42.0613 24.8626 41.308L42.0463 37.4275C42.0432 37.391 42.0448 37.353 42.0417 37.3151L42.4807 40.1886L42.4336 40.7126L27.6314 44.0555C25.0009 44.6493 23.3423 47.2753 23.9347 49.9074L26.951 63.2667C27.4643 65.5373 29.4889 67.0834 31.7261 67.0834C32.0815 67.0834 32.4445 67.0455 32.8044 66.9634L62.8401 60.1805C64.1113 59.8935 65.1957 59.1249 65.8959 58.0177C66.5961 56.909 66.8223 55.5998 66.5368 54.3286L63.5205 40.9708C63.235 39.7011 62.4665 38.6152 61.3577 37.915C60.249 37.2163 58.9413 36.987 57.6686 37.2741L56.0556 37.6386L59.4942 33.5348C59.8207 33.4832 60.1473 33.4254 60.4738 33.4254C61.6266 33.4254 62.7581 33.7474 63.7605 34.3732C65.1578 35.2465 66.1252 36.6012 66.4821 38.1869L67.3646 42.0947L68.124 41.6573C68.6722 41.3414 69.1567 41.1439 69.6504 41.0316C72.6029 40.3663 75.5524 42.1995 76.2115 45.1247C76.8737 48.0499 75.0026 50.9736 72.0455 51.6418C71.5595 51.7512 71.0188 51.7816 70.4006 51.7315L69.5258 51.6616L70.4113 55.5679ZM42.0691 60.3764L39.762 64.2888L36.2551 65.0801L38.2645 61.672L37.5233 61.2346L35.1024 65.3399L32.569 65.9124C32.1149 66.0157 31.6638 66.0188 31.2279 65.961L33.7567 61.672L33.0155 61.2346L30.3576 65.7423L30.3835 65.7575C29.2246 65.3186 28.2966 64.3268 28.0035 63.0298L24.9872 49.6705C24.524 47.617 25.818 45.5697 27.8699 45.1065L57.907 38.3236C58.1865 38.2598 58.466 38.2294 58.7469 38.2294C59.4608 38.2294 60.1624 38.4314 60.7836 38.8248C61.6493 39.3715 62.2493 40.2175 62.471 41.2077L65.4873 54.5655C65.7106 55.5558 65.5329 56.5779 64.9877 57.4436C64.4409 58.3094 63.5949 58.9078 62.6047 59.131L40.9148 64.0291L42.8102 60.8138L42.0691 60.3764ZM63.1211 5.61177C63.557 5.91857 63.9321 6.32864 64.2009 6.83744C64.7386 7.85503 64.7857 9.07614 64.3255 10.1028L63.5569 11.8221L52.4606 5.54039L63.1211 5.61177ZM38.6913 5.44319C38.6654 5.27308 38.6746 5.1045 38.6715 4.93591L43.1003 5.53583L43.2158 4.68227L38.7535 4.07779C38.8963 3.42015 39.1955 2.81415 39.6694 2.35244C40.2328 1.80416 40.9543 1.50951 41.7076 1.50951C41.8792 1.50951 42.0524 1.5247 42.2255 1.55659L58.6725 4.50609L49.9896 4.44838C49.1406 4.29498 48.2824 4.38914 47.5079 4.79618C46.2776 5.44167 45.462 6.72657 45.3284 8.23321L43.0426 33.8932L38.6913 5.44319ZM88.0232 67.1229C87.5569 67.2308 86.8841 66.7751 86.2553 65.9398C85.7116 65.2168 85.2332 64.2402 84.8641 63.1589L84.4814 61.4639C84.454 61.473 84.4267 61.4821 84.4009 61.4912C83.9346 61.6522 83.4531 61.7798 83.0051 61.9833C82.993 61.9879 82.9823 61.9879 82.9717 61.9924L82.9945 62.0942C83.1114 62.6151 83.2587 63.1179 83.4228 63.6054L83.681 64.7506C84.0789 66.5108 82.9687 68.265 81.2084 68.663L22.5328 81.9099C20.768 82.3078 19.0199 81.1991 18.6204 79.4388L18.019 76.7764C17.9461 76.8052 17.8686 76.8128 17.7957 76.8386C17.3917 76.9829 16.9847 77.112 16.5609 77.1819C17.2854 80.502 16.5275 83.2662 15.3489 83.532L12.4009 84.1972L10.9216 77.6451L13.6858 77.0209L13.4489 75.9714L10.6847 76.5956L9.68838 72.182L12.4526 71.5578L12.2157 70.5083L9.45145 71.1325L8.45512 66.7189L11.2193 66.0947L10.9824 65.0452L8.21819 65.6694L7.22034 61.2543L9.98455 60.6301L9.74762 59.5806L6.98341 60.2048L5.98708 55.7912L8.75129 55.167L8.51284 54.116L5.74863 54.7402L4.7523 50.3266L7.51651 49.7024L7.27958 48.6529L4.51537 49.2771L3.51904 44.8635L6.28477 44.2393L6.04784 43.1898L3.28211 43.814L1.80281 37.2619L4.75382 36.5967C5.94608 36.3127 7.84001 38.5392 8.59941 41.8942L8.62219 41.996C8.6389 41.9884 8.6556 41.9838 8.67231 41.9747C9.1158 41.7606 9.5684 41.5723 10.0347 41.4097L9.46512 38.887C9.27375 38.038 9.42715 37.1632 9.89494 36.422C10.3627 35.6808 11.0887 35.166 11.9377 34.9746L40.6915 28.4818L41.864 36.1486L24.5786 40.0519C20.5569 40.9602 18.0144 44.944 18.9135 48.9308L22.8396 66.3134C23.6172 69.7489 26.6958 72.0833 30.107 72.0818C30.6553 72.0818 31.2127 72.021 31.7701 71.895L66.0083 64.1643C67.9493 63.7254 69.6093 62.5589 70.6816 60.8792C71.7569 59.1978 72.1078 57.2097 71.6734 55.2839L71.1661 53.0407C71.5777 53.03 71.965 52.9814 72.3356 52.8994C75.9883 52.0747 78.2953 48.4585 77.4782 44.8377C76.6611 41.2169 73.0221 38.9478 69.3709 39.7694C69.0018 39.853 68.6328 39.976 68.2546 40.1431L67.7488 37.8998C67.3144 35.974 66.1419 34.3322 64.45 33.2751C63.2851 32.5476 61.9728 32.1983 60.6378 32.174L69.1097 22.0618L70.6117 21.7231C70.8502 21.6685 71.0917 21.6426 71.3316 21.6426C71.9422 21.6426 72.5452 21.8158 73.0768 22.153C73.8194 22.6223 74.3328 23.3467 74.5257 24.1957L74.8158 25.4776C74.8674 25.8634 74.9206 26.2507 75.0056 26.6516C75.3959 26.5119 75.7924 26.398 76.2039 26.3357C76.2905 26.3069 76.3756 26.281 76.4621 26.2537C76.4849 26.2461 76.5062 26.24 76.529 26.2324L76.2981 25.2088C75.9427 22.3489 76.6368 20.3638 77.4281 20.1861L80.0541 19.5923L81.5334 26.1428L79.076 26.6972L79.3129 27.7467L81.7703 27.1923L82.7666 31.6059L80.3092 32.1603L80.5462 33.2098L83.0036 32.6554L83.9999 37.069L81.5425 37.6249L81.7794 38.6744L84.2368 38.1185L85.2332 42.5336L82.7758 43.088L83.0127 44.1375L85.4701 43.5831L86.4664 47.9967L84.009 48.5511L84.246 49.6006L86.7034 49.0462L87.6997 53.4598L85.2423 54.0142L85.4792 55.0637L87.9366 54.5093L88.933 58.9229L86.474 59.4788L86.711 60.5283L89.1699 59.9724L90.6492 66.5245L88.0232 67.1229Z" fill="#111111"/>
</svg>
