<svg width="17" height="17" viewBox="0 0 17 17" fill="none" xmlns="http://www.w3.org/2000/svg">
<path d="M15.4426 9.51175C16.5702 8.08531 16.3553 6.56639 16.3453 6.50059L16.2993 6.19806H12.6319C12.6524 5.21209 12.5623 2.56912 11.1255 1.06806C10.4471 0.359338 9.56376 0 8.5 0C7.43624 0 6.55289 0.359338 5.87447 1.0681C4.43768 2.56916 4.34759 5.21213 4.36812 6.19809H0.700673L0.654675 6.50062C0.644665 6.56639 0.429801 8.08527 1.55735 9.51178C1.07304 10.1507 0 12.0815 0 16.6458V17H17V16.6458C17 12.0814 15.927 10.1507 15.4426 9.51175ZM6.41117 1.54877C6.9531 0.983273 7.63634 0.708333 8.5 0.708333C9.36366 0.708333 10.0469 0.983273 10.5888 1.54877C11.8399 2.85444 11.9157 5.313 11.8994 6.19806H5.10058C5.08428 5.31296 5.16013 2.85441 6.41117 1.54877ZM15.6356 6.90643C15.6296 7.37924 15.5124 8.32702 14.7679 9.19622C13.7939 10.3333 12.0917 10.9904 9.70596 11.1525V10.7048C9.70596 10.358 9.41488 10.0759 9.05713 10.0759H7.94291C7.58516 10.0759 7.29408 10.358 7.29408 10.7048V11.1525C4.90833 10.9905 3.20611 10.3333 2.23216 9.19626C1.48739 8.32674 1.37029 7.37857 1.36441 6.90643H15.6356ZM8.97525 10.7842V12.8239H8.02475V10.7842H8.97525ZM0.73308 16.2917C0.753393 14.7664 0.913089 12.7489 1.50876 11.1589C1.71022 10.6212 1.91255 10.2666 2.05938 10.0509C3.20158 11.1024 4.95794 11.7106 7.29404 11.8625V12.9033C7.29404 13.2501 7.58512 13.5322 7.94287 13.5322H9.05709C9.41488 13.5322 9.70592 13.2501 9.70592 12.9033V11.8625C12.0421 11.7106 13.7985 11.1023 14.9407 10.0509C15.0795 10.255 15.2687 10.5843 15.4594 11.0756C16.0804 12.6753 16.2462 14.7334 16.2669 16.2917H0.73308Z" fill="#1F1F1F"/>
</svg>
