<svg width="20" height="10" viewBox="0 0 20 10" fill="none" xmlns="http://www.w3.org/2000/svg">
<path d="M18.8655 0.396077C18.5871 0.401632 18.3109 0.449055 18.0448 0.536992C17.9004 0.587351 17.8053 0.735403 17.8127 0.898313V1.84136C17.1609 2.29586 16.3924 2.51834 15.6163 2.47729C15.3909 2.47729 15.2127 2.47729 15.1084 2.452L12.9086 0.215416C12.7404 0.0621255 12.5231 -0.0143843 12.3031 0.00223646C11.1091 0.00223646 8.38118 1.44752 6.94155 2.35444C5.23284 3.4384 1.76833 4.0671 1.7347 4.07433L1.66406 4.09601C-0.0883745 4.87646 -0.132101 6.43014 0.0999873 7.17447C0.584346 9.84463 6.06365 10 7.31155 10H19.3263C19.5121 10 19.6627 9.83822 19.6627 9.63868V7.71283C19.8381 7.49545 19.9544 7.23047 19.9991 6.94683C20.0003 6.92881 20.0003 6.91066 19.9991 6.89264V1.47281C19.989 0.79353 19.5618 0.396077 18.8655 0.396077ZM5.46157 3.83224L5.90556 4.69941C5.99844 4.87402 6.20551 4.93468 6.36806 4.83491C6.53061 4.73514 6.58707 4.5127 6.49419 4.33809L6.10065 3.56848C6.38656 3.44924 6.65901 3.32278 6.91128 3.18548L7.473 4.10685C7.57261 4.27531 7.78048 4.32513 7.93726 4.21813C8.09405 4.11114 8.14047 3.88784 8.04086 3.71942C8.03889 3.71603 8.03683 3.71274 8.03472 3.70944L7.50327 2.83865C7.74545 2.69051 7.99436 2.54237 8.25336 2.39784L8.92608 3.4529C9.02404 3.62245 9.23141 3.67462 9.38925 3.56938C9.54708 3.46415 9.59565 3.24139 9.49768 3.07184C9.49154 3.06118 9.48486 3.05089 9.47771 3.04099L8.84535 2.06543C9.14471 1.90645 9.44744 1.75108 9.74007 1.61016L10.5272 2.83865C10.6302 3.00468 10.8391 3.04949 10.9936 2.93874C11.1482 2.828 11.1899 2.60366 11.0868 2.43763C11.0853 2.43519 11.0837 2.43276 11.0822 2.43036L10.3826 1.3464C10.9874 1.04076 11.6333 0.839554 12.2964 0.750217C12.3444 0.743216 12.3931 0.743216 12.4411 0.750217L13.7865 2.10517C12.4585 4.01814 10.6076 5.43795 8.49222 6.16642C7.56159 5.84083 6.6025 5.61807 5.62979 5.50159C4.76476 5.43633 3.94084 5.0798 3.27527 4.48267C3.94795 4.32364 4.71149 4.10685 5.46157 3.83224ZM1.8827 4.78974C1.96679 4.78974 2.18206 4.73193 2.47805 4.6669C3.31076 5.57535 4.42255 6.12758 5.6062 6.22058C6.71283 6.27839 9.04717 7.08052 10.6516 7.66586H9.17835C3.08687 7.69115 1.25707 7.17447 0.712163 6.81314C0.6348 6.48795 0.527165 5.40038 1.8827 4.78974ZM18.99 9.27374H7.473C5.99302 9.29542 2.4646 9.04611 1.19989 7.80317C2.24933 8.10306 4.43231 8.4138 9.19853 8.4138C10.3152 8.4138 11.4421 8.4138 12.5117 8.37044C13.5208 8.34515 14.4727 8.31263 15.3236 8.2765C17.3889 8.19339 18.8319 8.10306 18.8487 8.09945C18.8958 8.10284 18.9429 8.10284 18.99 8.09945V9.27374ZM19.3263 6.86012C19.3062 6.9649 19.2019 7.38042 18.8218 7.38042C18.7982 7.38042 17.5638 7.45991 15.7508 7.5394C16.4 5.06074 18.4585 4.24054 19.3263 4.00568V6.86012ZM15.0445 7.56831C14.2809 7.59721 13.44 7.62612 12.5588 7.6478C12.2594 7.52495 10.988 7.0191 9.5618 6.5277C11.4256 5.69282 13.0503 4.3427 14.2708 2.61459L14.7115 3.06985C14.7616 3.12039 14.825 3.15318 14.8931 3.1638C15.1284 3.19668 15.3655 3.2124 15.6028 3.21077C16.4101 3.21077 17.5436 3.04456 18.361 2.25688C18.4314 2.18859 18.4718 2.09144 18.472 1.9895V1.16208C18.596 1.13498 18.7221 1.12044 18.8487 1.11872C19.3095 1.11872 19.3162 1.33551 19.3196 1.48004L19.3263 3.26497C18.435 3.4926 15.7407 4.42481 15.0445 7.56831Z" fill="#1F1F1F"/>
</svg>
