<svg width="17" height="20" viewBox="0 0 17 20" fill="none" xmlns="http://www.w3.org/2000/svg">
<path d="M13.0718 9.083V7.73464C13.2619 7.26561 13.6976 5.99402 13.6288 4.32713C13.5845 3.25273 14.2062 1.08481 14.2125 1.06303L14.3347 0.63955L11.628 0L11.5345 0.399283C11.53 0.418288 11.0675 2.30121 9.15478 2.6492L8.89009 2.69734L8.83118 2.96686C8.69627 3.58409 8.58635 3.99893 8.50147 4.27659C8.4166 3.99897 8.30668 3.58409 8.17177 2.96686L8.11286 2.69734L7.84817 2.6492C5.94999 2.30387 5.48687 0.475471 5.46841 0.399241L5.37489 0L2.66811 0.639591L2.79042 1.06311C2.79672 1.08485 3.41849 3.2514 3.37403 4.32717C3.3053 5.99406 3.741 7.26569 3.93111 7.73469V9.07557L0 18.1861L0.228995 18.387C0.304061 18.4529 2.1407 20 8.49966 20C14.8589 20 16.6959 18.4529 16.7709 18.3871L17 18.1861L13.0718 9.083ZM4.73875 8.74846V8.15953H12.2642V8.74846H4.73875ZM4.81095 0.984845C4.90229 1.21984 5.04919 1.53613 5.27257 1.86491C5.80753 2.6524 6.55359 3.18202 7.44182 3.40855C7.55194 3.89187 7.65648 4.29069 7.75323 4.59669C7.90817 5.08665 8.09364 5.56502 8.50151 5.56502C8.90943 5.56502 9.09482 5.08669 9.24979 4.59669C9.34655 4.29074 9.45109 3.89187 9.5612 3.40855C10.4494 3.18202 11.1955 2.6524 11.7304 1.86491C11.9538 1.53613 12.1007 1.21984 12.192 0.984887L13.3226 1.25204C13.1335 1.97662 12.7846 3.4542 12.822 4.36232C12.8798 5.76587 12.5333 6.87076 12.3591 7.32959H4.64297C4.46873 6.87334 4.12275 5.77446 4.18098 4.36232C4.21849 3.4542 3.86953 1.97658 3.68043 1.252L4.81095 0.984845ZM14.6487 18.46C12.6953 19.0468 10.2267 19.17 8.49986 19.17C6.77297 19.17 4.30446 19.0468 2.35116 18.46C1.67225 18.2561 1.24225 18.0508 1.00074 17.9143L4.59766 9.57839H6.09584L5.30302 13.1958L6.09091 13.3782L6.92367 9.57843H10.0417L10.8744 13.3782L11.6623 13.1958L10.8695 9.57839H12.4021L15.9993 17.9143C15.7577 18.0508 15.3277 18.2561 14.6487 18.46Z" fill="#1F1F1F"/>
</svg>
