<svg width="34" height="22" viewBox="0 0 34 22" fill="none" xmlns="http://www.w3.org/2000/svg">
<path d="M11.1562 20.6308H8.2016C5.71217 20.6308 3.20214 20.061 0.943204 18.983C0.610376 18.8242 0.215657 18.9735 0.0615947 19.3166C-0.0924677 19.6596 0.0524306 20.0664 0.385259 20.2252C2.81792 21.3862 5.52078 21.9998 8.20167 21.9998H11.1563C11.523 21.9998 11.8203 21.6933 11.8203 21.3153C11.8203 20.9373 11.523 20.6308 11.1562 20.6308Z" fill="#FF6F61"/>
<path d="M14.5476 20.8315C14.4241 20.7035 14.2527 20.631 14.0781 20.631C13.9034 20.631 13.7321 20.7035 13.6086 20.8315C13.4851 20.9588 13.414 21.1354 13.414 21.3155C13.414 21.4955 13.4851 21.6721 13.6086 21.7994C13.7321 21.9266 13.9034 21.9999 14.0781 21.9999C14.2527 21.9999 14.4241 21.9267 14.5476 21.7994C14.6711 21.6721 14.7421 21.4955 14.7421 21.3155C14.7421 21.1354 14.6711 20.9588 14.5476 20.8315Z" fill="#FF6F61"/>
<path d="M33.9623 9.78058C33.8313 8.98405 33.3699 8.29041 32.6963 7.87739C31.646 7.2335 30.3095 7.40606 29.4459 8.29718L28.2759 9.50439C27.9456 8.67467 27.2909 8.01655 26.4751 7.69826C26.4956 7.63228 26.5069 7.56212 26.5069 7.48916V6.143C26.5069 3.59489 25.1495 1.27144 22.9646 0.0794886C22.7587 -0.0327656 22.5109 -0.0257158 22.3114 0.0980377C22.1119 0.22186 21.9899 0.444383 21.9899 0.684429C21.9899 1.79465 21.1136 2.69789 20.0365 2.69789H12.8053C9.8761 2.69789 7.49291 5.15434 7.49291 8.17363C7.49291 8.55167 7.79021 8.85811 8.15697 8.85811C8.52374 8.85811 8.82104 8.55167 8.82104 8.17363C8.82104 5.90911 10.6084 4.06684 12.8053 4.06684H20.0365C21.4619 4.06684 22.678 3.12527 23.1299 1.81375C24.4122 2.84306 25.1788 4.42948 25.1788 6.143V7.48916H17.2655C16.8988 7.48916 16.6015 7.7956 16.6015 8.17363C16.6015 8.55167 16.8988 8.85811 17.2655 8.85811H25.365C26.3358 8.85811 27.1313 9.64676 27.18 10.6351L23.6049 14.324C23.0099 14.938 22.2185 15.2761 21.3766 15.2761H19.5393C19.4568 14.732 19.1902 14.2235 18.7598 13.8428L16.2266 11.6019C14.2433 9.84752 11.7118 8.88022 9.09822 8.87837L0.664695 8.87248C0.664562 8.87248 0.66443 8.87248 0.66423 8.87248C0.297668 8.87248 0.000434008 9.17865 0.000168383 9.55648C-9.72415e-05 9.93452 0.297004 10.2412 0.663766 10.2414L9.09722 10.2474C11.3939 10.249 13.6186 11.099 15.3615 12.6408L17.8947 14.8817C18.3753 15.3068 18.2313 15.8448 18.1757 15.9996C18.1201 16.1544 17.8894 16.6594 17.2561 16.6594C17.087 16.6594 16.9199 16.6141 16.7729 16.5282L14.4815 15.1908C12.9003 14.2679 11.1041 13.78 9.28688 13.78C8.92012 13.78 8.62282 14.0866 8.62282 14.4645C8.62282 14.8425 8.92012 15.149 9.28688 15.149C10.8751 15.149 12.4451 15.5754 13.8271 16.3821L16.1185 17.7196C16.4648 17.9216 16.8582 18.0285 17.2562 18.0285C18.1724 18.0285 18.9772 17.4913 19.3529 16.6452H21.3767C22.5736 16.6452 23.6986 16.1645 24.5445 15.2916L30.3855 9.26483C30.819 8.81745 31.49 8.73073 32.0173 9.05408C32.3554 9.2614 32.5871 9.60967 32.6528 10.0095C32.7186 10.4093 32.6112 10.8169 32.3582 11.1275L27.5931 16.9779C25.7021 19.2996 22.9309 20.631 19.99 20.631H17.2656C16.8988 20.631 16.6015 20.9376 16.6015 21.3155C16.6015 21.6935 16.8988 22 17.2656 22H19.99C23.3244 22 26.4664 20.4903 28.6102 17.8581L33.3753 12.0077C33.8794 11.3888 34.0933 10.577 33.9623 9.78058Z" fill="#FF6F61"/>
<path d="M15.278 7.68978C15.1545 7.56246 14.9831 7.48922 14.8085 7.48922C14.6338 7.48922 14.4625 7.56246 14.339 7.68978C14.2155 7.81709 14.1444 7.99368 14.1444 8.1737C14.1444 8.35372 14.2155 8.53031 14.339 8.65763C14.4625 8.78494 14.6338 8.85818 14.8085 8.85818C14.9831 8.85818 15.1545 8.78494 15.278 8.65763C15.4015 8.53031 15.4726 8.35372 15.4726 8.1737C15.4726 7.99368 15.4015 7.81709 15.278 7.68978Z" fill="#FF6F61"/>
</svg>
