<svg width="24" height="24" viewBox="0 0 29 29" fill="none" xmlns="http://www.w3.org/2000/svg">
<path d="M13.5388 9.47097C11.8873 11.1226 11.8873 13.8101 13.5388 15.4618C13.9083 15.8312 14.3358 16.1256 14.8095 16.3366C15.1369 16.4823 15.5204 16.3352 15.6661 16.0079C15.8119 15.6806 15.6648 15.2971 15.3375 15.1512C15.0095 15.0051 14.713 14.8009 14.4564 14.5442C13.3107 13.3985 13.3107 11.5342 14.4564 10.3885C15.6021 9.24272 17.4663 9.24279 18.6119 10.3884C19.7576 11.5342 19.7576 13.3985 18.612 14.5442C18.2546 14.9016 17.8103 15.1617 17.3271 15.2965C16.9819 15.3928 16.7802 15.7507 16.8765 16.0958C16.9565 16.3826 17.2172 16.5704 17.5011 16.5704C17.5587 16.5704 17.6174 16.5626 17.6757 16.5464C18.3735 16.3517 19.0145 15.9767 19.5295 15.4617C21.1811 13.81 21.1811 11.1225 19.5295 9.47084C17.8778 7.81932 15.1905 7.81932 13.5388 9.47097Z" fill="#FF6F61"/>
<path d="M28.8099 4.9469L24.0532 0.189968C23.7999 -0.0633228 23.3891 -0.0633228 23.1357 0.189968C22.8823 0.443324 22.8823 0.854143 23.1357 1.10756L23.2042 1.17608L19.6742 4.70619C18.7396 3.92017 17.7618 3.52239 16.7605 3.52239C15.5871 3.52239 14.4459 4.06855 13.3689 5.14575L0.791628 17.7236C0.281112 18.2342 0 18.9129 0 19.6349C0 20.3568 0.281112 21.0356 0.791628 21.5461L7.45481 28.2096C7.98174 28.7366 8.67385 29 9.36595 29C10.0581 29 10.7502 28.7365 11.2771 28.2096L23.8544 15.6318C24.9315 14.5546 25.4777 13.4134 25.4777 12.2399C25.4777 11.2386 25.0799 10.2607 24.2939 9.32603L27.8239 5.79591L27.8924 5.86443C28.1457 6.11778 28.5565 6.11778 28.8099 5.86443C29.0634 5.61114 29.0634 5.20025 28.8099 4.9469ZM22.9369 14.7142L10.3597 27.292C9.81185 27.8399 8.92031 27.84 8.37236 27.292L1.70912 20.6286C1.16117 20.0806 1.16117 19.1891 1.70912 18.6412L14.2864 6.06328C15.1113 5.23834 15.9438 4.81999 16.7606 4.81999C17.5774 4.81999 18.4098 5.23834 19.2348 6.06335L22.9369 9.76565C23.7618 10.5906 24.1801 11.4231 24.1801 12.2399C24.1801 13.0567 23.7619 13.8892 22.9369 14.7142ZM23.3956 8.38936L20.611 5.60458L24.1217 2.09361L26.9065 4.87845L23.3956 8.38936Z" fill="#FF6F61"/>
</svg>
