<svg width="119" height="86" viewBox="0 0 119 86" fill="none" xmlns="http://www.w3.org/2000/svg">
<path d="M107.992 27.6231H26.7144V27.416C26.6958 27.4365 26.6808 27.4589 26.6622 27.4794C26.4252 26.0651 24.4568 25.1341 21.9044 24.6807L19.742 3.97041C19.742 3.53941 19.7886 3.12707 19.8315 2.75204C19.9285 1.90124 20.02 1.09709 19.5125 0.531751C19.1934 0.173518 18.7102 0 18.0404 0C17.3687 0 16.8873 0.173518 16.5664 0.531751C16.0607 1.09895 16.1522 1.90124 16.2492 2.75204C16.2902 3.12707 16.3387 3.53941 16.3425 3.90324L14.1782 24.677C11.7582 25.108 9.84952 25.9662 9.45584 27.2592C9.43905 27.1939 9.41292 27.1324 9.39613 27.0652L9.36442 27.0969V33.6738H8.48376C3.61031 33.6738 0 43.8779 0 46.5758V80.8C0 83.7163 3.72599 86 8.48376 86H27.5913C32.3491 86 36.0751 83.7163 36.0751 80.8V77.9864H107.992C113.645 77.9864 118.246 73.3872 118.246 67.732V37.8793C118.246 32.2241 113.645 27.6231 107.992 27.6231ZM17.6597 3.97041C17.6597 3.4853 17.6094 3.02445 17.5608 2.60278C17.5123 2.17738 17.4396 1.53741 17.5515 1.41241C17.5795 1.38069 17.7157 1.32285 18.0385 1.32285C18.3594 1.32285 18.4975 1.38069 18.5255 1.41241C18.6374 1.53741 18.5646 2.17925 18.5161 2.60465C18.4695 3.02632 18.4172 3.48717 18.421 4.03944L20.686 25.7256C20.686 26.164 20.686 27.4981 18.0385 27.4981C15.3891 27.4981 15.3891 26.164 15.3853 25.7927L17.6597 3.97041ZM14.0942 26.011C14.2341 27.7947 15.6447 28.8209 18.0385 28.8209C20.408 28.8209 21.8111 27.8152 21.9734 26.0092C24.1042 26.4551 25.3916 27.1977 25.3916 27.7593C25.3916 28.6138 22.4604 29.9031 18.0404 29.9031C13.6203 29.9031 10.6873 28.6138 10.6873 27.7593C10.6854 27.1977 11.9709 26.4588 14.0942 26.011ZM16.4992 33.9313C16.9992 33.9649 17.5105 33.9873 18.0385 33.9873C18.6001 33.9873 19.1449 33.9649 19.6711 33.9276L18.018 36.883C16.863 36.883 15.8406 36.8102 14.9506 36.6983L16.4992 33.9313ZM14.3909 36.6125C13.4076 36.4576 12.6128 36.258 12.0176 36.0453L13.4057 33.5656C13.4206 33.5376 13.4113 33.5078 13.4151 33.4779C14.1651 33.6626 15.0159 33.7914 15.9208 33.8791L14.3909 36.6125ZM20.3185 33.8604C21.3895 33.7503 22.3597 33.5656 23.1993 33.3193L21.479 36.6479C20.6562 36.7673 19.7046 36.8438 18.6355 36.8681L20.3185 33.8604ZM23.815 33.2783C23.8411 33.2298 23.8336 33.1775 23.828 33.1272C24.468 32.8958 24.983 32.6215 25.3916 32.323V35.2168C25.3916 35.5359 24.2553 36.1516 22.1302 36.5397L23.815 33.2783ZM10.6854 29.6568C12.2993 30.683 15.1652 31.224 18.0385 31.224C20.9118 31.224 23.7777 30.683 25.3897 29.6568V31.6569C24.44 32.6197 21.7402 33.4593 18.0385 33.4593C14.3349 33.4593 11.6351 32.6197 10.6854 31.6569V29.6568ZM10.6854 32.3211C11.2283 32.7185 11.9915 33.0619 12.9281 33.3324L11.5213 35.8475C10.9858 35.6068 10.6854 35.3717 10.6854 35.215V32.3211ZM34.2261 80.8H34.2242C34.2242 82.3841 31.5002 84.1491 27.5913 84.1491H8.48376C4.57492 84.1491 1.85087 82.3841 1.85087 80.8V46.5758C1.85087 44.2417 5.22235 35.5266 8.48376 35.5266H9.42412C9.42785 35.5079 9.42785 35.4874 9.43345 35.4687C9.80101 37.3401 14.0438 38.2077 18.0404 38.2077C21.994 38.2077 26.1827 37.3569 26.6286 35.5247H27.5932C30.8546 35.5247 34.2261 44.2398 34.2261 46.5739V80.8ZM34.575 41.0736H53.2964C52.3653 44.3555 48.9864 46.9807 44.5607 48.1151C44.5458 48.1188 44.5309 48.1151 44.516 48.1207C44.5029 48.1244 44.4936 48.1356 44.4786 48.1412C42.9748 48.5199 41.3516 48.727 39.6612 48.727C38.4148 48.727 37.2263 48.5778 36.0751 48.3614V46.5739C36.0751 45.5272 35.5266 43.348 34.575 41.0736ZM116.396 67.7302C116.396 72.3629 112.625 76.1337 107.992 76.1337H36.0751V72.1241H107.992C111.526 72.1241 114.619 70.2676 116.396 67.4913V67.7302ZM107.992 70.8012H36.0751V49.7197C37.0211 49.8838 37.9969 49.9846 38.9988 50.0163V56.1977C38.9988 56.5634 39.2955 56.8582 39.6593 56.8582C40.0231 56.8582 40.3198 56.5615 40.3198 56.1977V50.0275C41.693 49.9865 43.0196 49.8167 44.279 49.5331L46.2437 55.5335C46.3351 55.8115 46.5944 55.9887 46.8725 55.9887C46.9396 55.9887 47.0087 55.9775 47.0777 55.9551C47.4247 55.8413 47.6132 55.4682 47.5012 55.1211L45.5627 49.1991C46.8687 48.8091 48.0815 48.2942 49.1748 47.6729C49.2066 47.7456 49.2047 47.8296 49.2644 47.8874L53.7479 52.3728C53.8766 52.5015 54.0464 52.5668 54.2162 52.5668C54.386 52.5668 54.5558 52.5015 54.6845 52.3728C54.942 52.1153 54.942 51.6955 54.6845 51.438L50.2477 47.0012C51.3074 46.2735 52.2198 45.4377 52.9475 44.5141L58.3135 47.6729C58.4198 47.7344 58.5337 47.7643 58.6493 47.7643C58.8751 47.7643 59.0953 47.6486 59.2203 47.4378C59.405 47.1243 59.3005 46.7176 58.9852 46.5329L53.705 43.4245C54.177 42.6222 54.5017 41.7639 54.6901 40.8702H77.5013C77.6879 41.7079 77.9958 42.5121 78.4361 43.2696L72.0103 46.5646C71.6856 46.7306 71.5588 47.1299 71.7248 47.4546C71.8405 47.6841 72.0756 47.8147 72.3125 47.8147C72.4152 47.8147 72.5178 47.7904 72.6148 47.7419L79.188 44.3723C79.9194 45.3108 80.8429 46.1579 81.9176 46.8967L77.4808 51.3336C77.2233 51.591 77.2233 52.0108 77.4808 52.2683C77.6095 52.3971 77.7793 52.4624 77.9491 52.4624C78.1189 52.4624 78.2887 52.3971 78.4174 52.2683L83.0726 47.615C84.1435 48.2158 85.3302 48.714 86.6026 49.0946L84.1454 54.8245C84.0017 55.1603 84.1566 55.5484 84.4924 55.6921C84.5783 55.7294 84.666 55.7462 84.7536 55.7462C85.0111 55.7462 85.2537 55.595 85.36 55.345L87.8471 49.5461C87.8639 49.5069 87.8639 49.4678 87.8714 49.4267C89.1345 49.7122 90.4667 49.882 91.8437 49.9249V56.0951C91.8437 56.4608 92.1403 56.7556 92.5042 56.7556C92.868 56.7556 93.1646 56.4589 93.1646 56.0951V49.9249C94.5379 49.8838 95.8644 49.7141 97.1239 49.4305L99.0885 55.4308C99.18 55.7088 99.4393 55.8861 99.7173 55.8861C99.7845 55.8861 99.8535 55.8749 99.9225 55.8525C100.27 55.7387 100.458 55.3655 100.346 55.0185L98.4075 49.0965C99.7136 48.7065 100.926 48.1916 102.02 47.5703C102.051 47.643 102.05 47.727 102.109 47.7848L106.593 52.2702C106.721 52.3989 106.891 52.4642 107.061 52.4642C107.231 52.4642 107.401 52.3989 107.529 52.2702C107.787 52.0127 107.787 51.5929 107.529 51.3354L103.093 46.8986C104.152 46.1709 105.067 45.335 105.792 44.4096L111.158 47.5684C111.265 47.63 111.379 47.6598 111.494 47.6598C111.72 47.6598 111.94 47.5441 112.065 47.3333C112.25 47.0199 112.145 46.6131 111.83 46.4284L106.55 43.32C107.003 42.5494 107.319 41.7266 107.511 40.8721H116.396V64.1609C115.478 67.9615 112.071 70.8012 107.992 70.8012ZM78.8727 40.9691H106.139C105.208 44.2491 101.829 46.8762 97.4037 48.0106C97.3888 48.0143 97.3739 48.0106 97.3589 48.0162C97.3459 48.0199 97.3366 48.0311 97.3216 48.0367C95.8178 48.4155 94.1946 48.6226 92.5042 48.6226C89.0618 48.6226 85.9067 47.7606 83.4662 46.3332C83.4569 46.3239 83.4607 46.309 83.4513 46.2997C83.4233 46.2717 83.3842 46.281 83.3524 46.2586C81.1023 44.9096 79.4716 43.0812 78.8727 40.9691Z" fill="#FFC9C2"/>
<path d="M8.73378 46.3314V46.3332L8.20576 46.8631V74.9228L8.73378 75.4527H27.3432L27.8712 74.9228V46.8613L27.3432 46.3314H8.73378Z" fill="#FFC9C2"/>
<path d="M107.992 27.6231H26.7144V27.416C26.6958 27.4365 26.6808 27.4589 26.6622 27.4794C26.4252 26.0651 24.4568 25.1341 21.9044 24.6807L19.742 3.97041C19.742 3.53941 19.7886 3.12707 19.8315 2.75204C19.9285 1.90124 20.02 1.09709 19.5125 0.531751C19.1934 0.173518 18.7102 0 18.0404 0C17.3687 0 16.8873 0.173518 16.5664 0.531751C16.0607 1.09895 16.1522 1.90124 16.2492 2.75204C16.2902 3.12707 16.3387 3.53941 16.3425 3.90324L14.1782 24.677C11.7582 25.108 9.84952 25.9662 9.45584 27.2592C9.43905 27.1939 9.41292 27.1324 9.39613 27.0652L9.36442 27.0969V33.6738H8.48376C3.61031 33.6738 0 43.8779 0 46.5758V80.8C0 83.7163 3.72599 86 8.48376 86H27.5913C32.3491 86 36.0751 83.7163 36.0751 80.8V77.9864H107.992C113.645 77.9864 118.246 73.3872 118.246 67.732V37.8793C118.246 32.2241 113.645 27.6231 107.992 27.6231ZM17.6597 3.97041C17.6597 3.4853 17.6094 3.02445 17.5608 2.60278C17.5123 2.17738 17.4396 1.53741 17.5515 1.41241C17.5795 1.38069 17.7157 1.32285 18.0385 1.32285C18.3594 1.32285 18.4975 1.38069 18.5255 1.41241C18.6374 1.53741 18.5646 2.17925 18.5161 2.60465C18.4695 3.02632 18.4172 3.48717 18.421 4.03944L20.686 25.7256C20.686 26.164 20.686 27.4981 18.0385 27.4981C15.3891 27.4981 15.3891 26.164 15.3853 25.7927L17.6597 3.97041ZM14.0942 26.011C14.2341 27.7947 15.6447 28.8209 18.0385 28.8209C20.408 28.8209 21.8111 27.8152 21.9734 26.0092C24.1042 26.4551 25.3916 27.1977 25.3916 27.7593C25.3916 28.6138 22.4604 29.9031 18.0404 29.9031C13.6203 29.9031 10.6873 28.6138 10.6873 27.7593C10.6854 27.1977 11.9709 26.4588 14.0942 26.011ZM16.4992 33.9313C16.9992 33.9649 17.5105 33.9873 18.0385 33.9873C18.6001 33.9873 19.1449 33.9649 19.6711 33.9276L18.018 36.883C16.863 36.883 15.8406 36.8102 14.9506 36.6983L16.4992 33.9313ZM14.3909 36.6125C13.4076 36.4576 12.6128 36.258 12.0176 36.0453L13.4057 33.5656C13.4206 33.5376 13.4113 33.5078 13.4151 33.4779C14.1651 33.6626 15.0159 33.7914 15.9208 33.8791L14.3909 36.6125ZM20.3185 33.8604C21.3895 33.7503 22.3597 33.5656 23.1993 33.3193L21.479 36.6479C20.6562 36.7673 19.7046 36.8438 18.6355 36.8681L20.3185 33.8604ZM23.815 33.2783C23.8411 33.2298 23.8336 33.1775 23.828 33.1272C24.468 32.8958 24.983 32.6215 25.3916 32.323V35.2168C25.3916 35.5359 24.2553 36.1516 22.1302 36.5397L23.815 33.2783ZM10.6854 29.6568C12.2993 30.683 15.1652 31.224 18.0385 31.224C20.9118 31.224 23.7777 30.683 25.3897 29.6568V31.6569C24.44 32.6197 21.7402 33.4593 18.0385 33.4593C14.3349 33.4593 11.6351 32.6197 10.6854 31.6569V29.6568ZM10.6854 32.3211C11.2283 32.7185 11.9915 33.0619 12.9281 33.3324L11.5213 35.8475C10.9858 35.6068 10.6854 35.3717 10.6854 35.215V32.3211ZM34.2261 80.8H34.2242C34.2242 82.3841 31.5002 84.1491 27.5913 84.1491H8.48376C4.57492 84.1491 1.85087 82.3841 1.85087 80.8V46.5758C1.85087 44.2417 5.22235 35.5266 8.48376 35.5266H9.42412C9.42785 35.5079 9.42785 35.4874 9.43345 35.4687C9.80101 37.3401 14.0438 38.2077 18.0404 38.2077C21.994 38.2077 26.1827 37.3569 26.6286 35.5247H27.5932C30.8546 35.5247 34.2261 44.2398 34.2261 46.5739V80.8ZM34.575 41.0736H53.2964C52.3653 44.3555 48.9864 46.9807 44.5607 48.1151C44.5458 48.1188 44.5309 48.1151 44.516 48.1207C44.5029 48.1244 44.4936 48.1356 44.4786 48.1412C42.9748 48.5199 41.3516 48.727 39.6612 48.727C38.4148 48.727 37.2263 48.5778 36.0751 48.3614V46.5739C36.0751 45.5272 35.5266 43.348 34.575 41.0736ZM116.396 67.7302C116.396 72.3629 112.625 76.1337 107.992 76.1337H36.0751V72.1241H107.992C111.526 72.1241 114.619 70.2676 116.396 67.4913V67.7302ZM107.992 70.8012H36.0751V49.7197C37.0211 49.8838 37.9969 49.9846 38.9988 50.0163V56.1977C38.9988 56.5634 39.2955 56.8582 39.6593 56.8582C40.0231 56.8582 40.3198 56.5615 40.3198 56.1977V50.0275C41.693 49.9865 43.0196 49.8167 44.279 49.5331L46.2437 55.5335C46.3351 55.8115 46.5944 55.9887 46.8725 55.9887C46.9396 55.9887 47.0087 55.9775 47.0777 55.9551C47.4247 55.8413 47.6132 55.4682 47.5012 55.1211L45.5627 49.1991C46.8687 48.8091 48.0815 48.2942 49.1748 47.6729C49.2066 47.7456 49.2047 47.8296 49.2644 47.8874L53.7479 52.3728C53.8766 52.5015 54.0464 52.5668 54.2162 52.5668C54.386 52.5668 54.5558 52.5015 54.6845 52.3728C54.942 52.1153 54.942 51.6955 54.6845 51.438L50.2477 47.0012C51.3074 46.2735 52.2198 45.4377 52.9475 44.5141L58.3135 47.6729C58.4198 47.7344 58.5337 47.7643 58.6493 47.7643C58.8751 47.7643 59.0953 47.6486 59.2203 47.4378C59.405 47.1243 59.3005 46.7176 58.9852 46.5329L53.705 43.4245C54.177 42.6222 54.5017 41.7639 54.6901 40.8702H77.5013C77.6879 41.7079 77.9958 42.5121 78.4361 43.2696L72.0103 46.5646C71.6856 46.7306 71.5588 47.1299 71.7248 47.4546C71.8405 47.6841 72.0756 47.8147 72.3125 47.8147C72.4152 47.8147 72.5178 47.7904 72.6148 47.7419L79.188 44.3723C79.9194 45.3108 80.8429 46.1579 81.9176 46.8967L77.4808 51.3336C77.2233 51.591 77.2233 52.0108 77.4808 52.2683C77.6095 52.3971 77.7793 52.4624 77.9491 52.4624C78.1189 52.4624 78.2887 52.3971 78.4174 52.2683L83.0726 47.615C84.1435 48.2158 85.3302 48.714 86.6026 49.0946L84.1454 54.8245C84.0017 55.1603 84.1566 55.5484 84.4924 55.6921C84.5783 55.7294 84.666 55.7462 84.7536 55.7462C85.0111 55.7462 85.2537 55.595 85.36 55.345L87.8471 49.5461C87.8639 49.5069 87.8639 49.4678 87.8714 49.4267C89.1345 49.7122 90.4667 49.882 91.8437 49.9249V56.0951C91.8437 56.4608 92.1403 56.7556 92.5042 56.7556C92.868 56.7556 93.1646 56.4589 93.1646 56.0951V49.9249C94.5379 49.8838 95.8644 49.7141 97.1239 49.4305L99.0885 55.4308C99.18 55.7088 99.4393 55.8861 99.7173 55.8861C99.7845 55.8861 99.8535 55.8749 99.9225 55.8525C100.27 55.7387 100.458 55.3655 100.346 55.0185L98.4075 49.0965C99.7136 48.7065 100.926 48.1916 102.02 47.5703C102.051 47.643 102.05 47.727 102.109 47.7848L106.593 52.2702C106.721 52.3989 106.891 52.4642 107.061 52.4642C107.231 52.4642 107.401 52.3989 107.529 52.2702C107.787 52.0127 107.787 51.5929 107.529 51.3354L103.093 46.8986C104.152 46.1709 105.067 45.335 105.792 44.4096L111.158 47.5684C111.265 47.63 111.379 47.6598 111.494 47.6598C111.72 47.6598 111.94 47.5441 112.065 47.3333C112.25 47.0199 112.145 46.6131 111.83 46.4284L106.55 43.32C107.003 42.5494 107.319 41.7266 107.511 40.8721H116.396V64.1609C115.478 67.9615 112.071 70.8012 107.992 70.8012ZM78.8727 40.9691H106.139C105.208 44.2491 101.829 46.8762 97.4037 48.0106C97.3888 48.0143 97.3739 48.0106 97.3589 48.0162C97.3459 48.0199 97.3366 48.0311 97.3216 48.0367C95.8178 48.4155 94.1946 48.6226 92.5042 48.6226C89.0618 48.6226 85.9067 47.7606 83.4662 46.3332C83.4569 46.3239 83.4607 46.309 83.4513 46.2997C83.4233 46.2717 83.3842 46.281 83.3524 46.2586C81.1023 44.9096 79.4716 43.0812 78.8727 40.9691ZM116.396 39.5492H33.8753C32.3529 36.4874 30.1493 33.6738 27.5913 33.6738H26.7126V29.4758H107.992C111.987 29.4758 115.325 32.2838 116.174 36.0247H100.352V36.9222H116.299C116.336 37.2394 116.396 37.5509 116.396 37.8775V39.5492Z" fill="#111111"/>
<path d="M97.3403 36.0247H77.8483V36.9222H97.3403V36.0247Z" fill="#111111"/>
<path d="M8.73378 46.3314V46.3332L8.20576 46.8631V74.9228L8.73378 75.4527H27.3432L27.8712 74.9228V46.8613L27.3432 46.3314H8.73378ZM26.8133 74.3929H9.2618V47.3911H26.8133V74.3929Z" fill="#111111"/>
</svg>
