<svg width="28" height="18" viewBox="0 0 28 18" fill="none" xmlns="http://www.w3.org/2000/svg">
<path d="M23.957 9.57893C24.3319 9.57893 24.6369 9.27545 24.6369 8.90238C24.6369 8.52932 24.3319 8.22584 23.957 8.22584C23.5821 8.22584 23.2771 8.52932 23.2771 8.90238C23.2771 9.27545 23.5821 9.57893 23.957 9.57893Z" fill="#FF6F61"/>
<path d="M21.7747 11.2074C22.1496 11.2074 22.4546 10.9039 22.4546 10.5309C22.4546 10.1578 22.1496 9.85432 21.7747 9.85432C21.3998 9.85432 21.0948 10.1578 21.0948 10.5309C21.0948 10.9039 21.3998 11.2074 21.7747 11.2074Z" fill="#FF6F61"/>
<path d="M25.5452 12.5139C27.0361 11.3804 27.9999 9.59356 27.9999 7.5866C27.9999 3.40329 24.5798 0 20.3759 0H8.72064C6.24474 0 3.99858 0.978609 2.39599 2.75567C0.850961 4.46894 0 6.80097 0 9.32217C0 11.7859 0.983507 14.021 2.76928 15.6157C4.49102 17.1532 6.83456 18 9.36821 18H25.2345C26.7594 18 28 16.7655 28 15.2481C28 13.8352 26.9244 12.6682 25.5452 12.5139ZM20.3759 1.28866C23.8658 1.28866 26.705 4.11392 26.705 7.5866C26.705 10.2937 24.4917 12.496 21.7713 12.496H13.9134C15.391 11.3617 16.3447 9.58299 16.3447 7.5866C16.3447 4.96637 15.0027 2.65226 12.967 1.28866H20.3759ZM25.2345 16.7113H9.36821C4.69032 16.7113 1.29503 13.6037 1.29503 9.32217C1.29503 4.66727 4.41791 1.28866 8.7207 1.28866C12.2105 1.28866 15.0497 4.11392 15.0497 7.5866C15.0497 10.2937 12.8365 12.496 10.116 12.496C8.01103 12.496 6.29855 10.7919 6.29855 8.6973C6.29855 7.09266 7.61048 5.78718 9.22304 5.78718C10.4417 5.78718 11.4331 6.77378 11.4331 7.98647C11.4331 8.34227 11.7231 8.6308 12.0806 8.6308C12.4382 8.6308 12.7282 8.34227 12.7282 7.98647C12.7282 6.06321 11.1558 4.49852 9.22304 4.49852C6.8964 4.49852 5.00352 6.38209 5.00352 8.6973C5.00352 11.5024 7.29701 13.7847 10.116 13.7847H25.2345C26.0453 13.7847 26.705 14.4412 26.705 15.248C26.705 16.0549 26.0453 16.7113 25.2345 16.7113Z" fill="#FF6F61"/>
</svg>
