<svg width="125" height="80" viewBox="0 0 125 80" fill="none" xmlns="http://www.w3.org/2000/svg">
<path d="M124.624 3.33343C124.099 2.01418 123.08 0.982051 121.757 0.424701C120.442 -0.130772 118.981 -0.143909 117.616 0.400304L84.5282 15.2592C83.8077 14.822 83.0891 14.3678 82.3592 13.97C79.4772 12.4443 76.7378 11.294 73.9778 10.457C70.2872 9.35919 66.8273 8.86939 63.313 8.94258L62.6056 8.97261C61.797 9.00451 60.962 9.03829 60.3991 9.1415L57.5641 9.58813C55.7535 9.96345 53.9222 10.517 51.969 11.2789C48.6123 12.5569 45.7378 14.0601 42.6926 15.6514L42.1316 15.9442C39.1577 17.5543 36.0862 19.4027 32.9941 21.4464C32.7877 21.5871 10.2798 37.5025 6.37334 41.4378C5.99996 41.815 5.6172 42.1847 5.23443 42.5562C3.84786 43.8961 2.4125 45.2848 1.37116 47.0094C0.0971606 49.1224 -0.69088 52.3014 0.847675 54.7447L1.66386 56.3792L2.49881 55.7975C2.49881 55.7975 3.96231 54.7785 6.41462 52.9507L11.3493 49.3495C12.8991 48.2179 14.6102 46.97 16.4865 45.6545C18.5523 44.172 20.817 42.6163 23.2018 40.9911C25.6541 39.3285 28.2002 37.6545 30.7782 36.0163C33.0748 34.5394 35.4764 33.0907 37.9118 31.6232L41.1353 29.739C43.2424 28.523 45.4207 27.2638 47.6348 26.1116C50.483 24.5615 53.5 22.9551 56.2507 21.7053C57.7442 21.0542 59.0463 20.5587 60.2171 20.1947L62.2642 19.703C62.782 19.5773 63.1441 19.5285 63.4913 19.4778C63.7277 19.444 63.9585 19.4121 64.1686 19.3708C66.5627 19.0462 69.2871 19.0593 72.0471 19.4103C72.4749 19.4628 72.9309 19.5472 73.3718 19.6167L69.8125 20.7839C69.6849 20.8346 68.9625 21.1273 68.7505 21.2137L65.0692 21.9981C65.0692 21.9981 60.2134 22.9308 57.671 23.946C52.1191 26.1623 48.693 30.2082 49.8694 33.1601C50.4773 34.6839 52.1435 35.6222 54.5564 35.7986C54.8322 35.8192 55.1174 35.8286 55.4063 35.8286C57.3933 35.8286 59.6543 35.3576 61.8701 34.4718C64.4088 33.4585 68.576 30.7918 68.576 30.7918L71.685 28.8777C71.9477 28.7726 72.7732 28.4404 72.8858 28.3954L78.7286 25.7156C79.0344 25.5936 79.3665 25.4191 79.5035 25.0513C79.5072 25.0438 79.5054 25.0363 79.5072 25.0288L85.8641 22.7994C85.9504 22.8275 86.0442 22.8557 86.1287 22.8838L91.2678 24.6066C92.1534 24.9312 92.9433 25.1845 93.6 25.3966C93.9997 25.5261 94.3487 25.6368 94.6733 25.7513L99.5629 27.277L96.8103 24.5746C96.7578 24.524 95.4932 23.2854 93.1178 21.3281L93.0784 21.2944C92.8007 21.0692 92.5005 20.8271 92.1909 20.5775L121.59 10.2675C122.919 9.73638 123.968 8.72302 124.542 7.41315C125.124 6.10141 125.152 4.6508 124.624 3.33343ZM76.5859 20.8064L74.7246 20.5719L76.1018 20.1196C76.1825 20.1365 76.2631 20.1534 76.3419 20.1703C76.3588 20.2228 76.3738 20.2716 76.3964 20.3298L76.5859 20.8064ZM72.7807 21.2094C72.807 21.2169 76.8823 21.6992 76.9348 21.6767L77.2895 22.5643L70.9514 21.8081L72.7807 21.2094ZM72.655 27.0419C72.5556 26.9124 72.4393 26.7173 72.3173 26.4958L73.6138 26.6028L72.655 27.0419ZM75.218 25.8676C75.1824 25.8564 71.9702 25.6124 71.897 25.6499C71.7357 25.2971 71.5724 24.9256 71.4186 24.539L76.8804 25.1057L75.218 25.8676ZM71.1052 23.702C70.9758 23.3398 70.8707 23.0039 70.7844 22.6999C70.7844 22.6999 77.5822 23.4562 77.6347 23.4337L77.9443 24.2087C77.9593 24.2462 77.9743 24.2725 77.9893 24.3082C77.9893 24.3082 71.184 23.6565 71.1052 23.702Z" fill="#FFC9C2"/>
<path d="M55.2863 60.9258C55.1174 60.4172 55.1399 59.8805 55.3482 59.4189C55.5452 58.9816 55.8885 58.6645 56.3163 58.5219C56.5284 58.4524 56.7498 58.428 56.9824 58.4543L59.0801 58.6983L57.8549 56.9774C56.3951 54.9244 53.9541 53.8735 51.498 54.2357C49.74 54.4928 48.1883 55.4161 47.1282 56.8404C46.0681 58.2648 45.6234 60.0156 45.8804 61.7721C46.1375 63.5286 47.0625 65.0806 48.4866 66.1427C49.6461 67.0078 51.0252 67.462 52.4437 67.462C52.7664 67.462 53.0929 67.4376 53.4175 67.3907C55.6559 67.0641 57.5566 65.6304 58.5003 63.5586L59.2996 61.804L57.4252 62.2582C56.549 62.4651 55.6052 61.8871 55.2863 60.9258ZM53.1435 65.5333C51.8958 65.7153 50.6274 65.4001 49.6049 64.6363C48.5823 63.8744 47.92 62.7597 47.7361 61.5005C47.5503 60.2394 47.8674 58.9821 48.6311 57.9612C49.3947 56.9403 50.5074 56.276 51.7682 56.0902C51.9952 56.0565 52.2223 56.0415 52.4493 56.0415C53.4494 56.0415 54.4175 56.3624 55.2243 56.9479C54.5282 57.3082 53.9766 57.8937 53.637 58.6424C53.2317 59.5376 53.1848 60.5566 53.5038 61.5155C53.9109 62.7428 54.8697 63.6492 55.9899 64.0076C55.2562 64.8258 54.258 65.3719 53.1435 65.5333Z" fill="#111111"/>
<path d="M95.4219 41.6273C96.0242 41.0925 96.7803 40.4207 97.7241 39.5799L101.736 36.0163L86.5827 39.5762C86.063 39.6982 85.3218 39.8614 84.6126 40.0153L87.1118 35.9881L85.3462 36.0594C83.9353 36.1157 51.271 36.6731 40.9101 40.4131C30.6825 44.1063 9.28721 59.6914 8.50105 66.1882C8.30779 66.4284 8.36971 67.9109 8.36971 67.9109C8.37346 67.9147 8.42787 67.9522 8.46352 67.9766C8.46352 67.9766 22.1792 77.0781 36.4483 79.9643C36.5103 79.9775 36.5722 79.9831 36.636 79.9831C37.0675 79.9831 37.4578 79.6772 37.546 79.2362C37.6473 78.7314 37.3227 78.2416 36.818 78.1403C23.8359 75.5149 13.3794 69.0313 10.3567 67.0177C21.1172 59.0966 28.6805 54.6866 35.3019 52.1813C33.5251 55.6774 32.8553 59.622 33.4313 63.5816C34.1724 68.6522 36.8405 73.1298 40.9496 76.1924C44.295 78.6882 48.2708 80 52.3705 80C53.303 80 54.2412 79.9324 55.1793 79.7954C60.249 79.0561 64.7277 76.3857 67.7898 72.2778C70.8519 68.1699 72.1297 63.1144 71.3923 58.0438C71.0377 55.6117 70.2027 53.3354 69.0113 51.2693C75.9235 52.4572 83.3611 53.508 89.7686 52.5529C91.4329 53.5118 92.7219 54.3281 93.4687 54.8254C91.4536 57.2594 84.6126 65.0322 74.7039 71.1237C74.2668 71.3939 74.1279 71.9663 74.3981 72.4054C74.6683 72.8445 75.2424 72.9759 75.6796 72.7113C87.8323 65.2405 95.5495 54.9399 95.8591 54.5327C95.8591 54.5327 94.4237 53.2791 92.4724 52.0086C98.0675 50.558 102.601 47.1783 104.841 40.385L105.484 38.4371L103.589 39.2253C101.981 39.8896 98.454 41.0188 95.4219 41.6273ZM69.5498 58.314C69.623 58.8076 69.6624 59.3011 69.6924 59.7947L60.5286 59.8735C60.234 59.8753 59.9976 60.1156 60.0014 60.4102C60.0032 60.7029 60.2415 60.9375 60.5323 60.9375H60.5361L69.713 60.8587C69.7111 62.8291 69.3922 64.7695 68.7374 66.6086L60.3053 63.2363C60.0276 63.1256 59.7237 63.2589 59.613 63.5328C59.5041 63.8068 59.6374 64.1165 59.9094 64.2253L68.334 67.5938C67.7992 68.8436 67.1312 70.0465 66.2982 71.165C65.9642 71.6135 65.6096 72.0395 65.24 72.4486L58.915 66.2276C58.703 66.0212 58.3671 66.0231 58.1626 66.2333C57.9581 66.4435 57.96 66.7794 58.1682 66.9858L64.4913 73.2048C62.8908 74.7718 61.0202 75.9972 58.96 76.8342L55.7872 68.1192C55.6859 67.8453 55.3782 67.7027 55.1061 67.8021C54.8303 67.9034 54.6858 68.2075 54.7872 68.4852L57.9656 77.2132C56.9824 77.5435 55.9655 77.7987 54.9166 77.9526C54.0798 78.0746 53.2467 78.114 52.4155 78.1159L52.3367 68.9168C52.3349 68.6241 52.0966 68.3895 51.8057 68.3895H51.802C51.5074 68.3914 51.271 68.6316 51.2747 68.9262L51.3536 78.099C49.4923 77.9883 47.6779 77.5642 45.9536 76.868L49.299 68.5002C49.4078 68.2262 49.2746 67.9166 49.0026 67.8077C48.7268 67.7008 48.419 67.8303 48.3102 68.1042L44.9723 76.4551C43.961 75.9709 42.9872 75.3854 42.0678 74.7005C41.4749 74.2576 40.927 73.7716 40.4017 73.2668L46.7285 66.83C46.933 66.6198 46.9311 66.2839 46.721 66.0775C46.5127 65.8711 46.175 65.873 45.9705 66.0831L39.6512 72.5124C38.3415 71.088 37.2983 69.4591 36.5346 67.6914L44.7978 64.1484C45.0699 64.032 45.1937 63.7186 45.0774 63.4484C44.961 63.1782 44.6458 63.0524 44.3794 63.1688L36.1294 66.7062C35.7372 65.6178 35.4502 64.4824 35.2794 63.3114C35.1743 62.5908 35.1293 61.8702 35.1143 61.1533L44.2556 61.0745C44.5501 61.0726 44.7866 60.8324 44.7828 60.5378C44.7809 60.245 44.5426 60.0105 44.2518 60.0105H44.2481L35.1162 60.0893C35.1893 58.2521 35.5552 56.4524 36.1969 54.741L44.7922 58.177C44.8579 58.2033 44.9235 58.2164 44.9892 58.2164C45.1993 58.2164 45.4001 58.0907 45.4845 57.8824C45.5934 57.6084 45.4601 57.2988 45.1881 57.1899L36.6078 53.7595C36.9962 52.8925 37.4634 52.0556 37.9981 51.2505C39.0995 50.9052 40.184 50.6125 41.2591 50.3591L46.5559 55.5667C46.661 55.668 46.7961 55.7206 46.9293 55.7206C47.0662 55.7206 47.2032 55.668 47.3083 55.561C47.5128 55.3509 47.5109 55.015 47.3027 54.8085L42.4975 50.0833C43.8015 49.813 45.1018 49.5935 46.417 49.4246L48.6367 53.7426C48.7305 53.9265 48.9163 54.0316 49.1095 54.0316C49.1921 54.0316 49.2746 54.0129 49.3534 53.9716C49.6142 53.8383 49.7156 53.5174 49.5823 53.2547L47.5447 49.2932C48.4847 49.19 49.4322 49.0962 50.4004 49.0267C53.5019 48.7978 57.4102 49.2913 61.66 49.9932L57.0293 54.4576C56.8173 54.6622 56.8117 54.9981 57.0143 55.2101C57.1194 55.319 57.2582 55.3734 57.3971 55.3734C57.5303 55.3734 57.6635 55.3246 57.7648 55.2233L62.9621 50.2127C64.0129 50.3929 65.0748 50.5787 66.1556 50.7682C66.2832 50.7907 66.4126 50.8133 66.5383 50.8358C67.0431 51.5508 67.4859 52.3051 67.878 53.0896L59.3409 56.7508C59.0689 56.8672 58.945 57.1805 59.0613 57.4508C59.1477 57.6516 59.3447 57.7736 59.5511 57.7736C59.6205 57.7736 59.6918 57.7604 59.7593 57.7304L68.3527 54.0448C68.925 55.394 69.3321 56.8235 69.5498 58.314ZM66.4783 48.9198C60.4029 47.8464 54.6633 46.8349 50.2616 47.1558C37.1745 48.1072 27.7818 52.0931 11.4262 63.9082C15.8129 57.3194 32.4087 44.6974 41.3661 41.7549C51.8376 38.3151 76.4902 38.3414 83.6463 38.013L80.6987 42.7645L82.8452 42.3141C82.8452 42.3141 85.6596 41.723 87.0105 41.4059L94.9491 39.5405C93.5944 40.7472 87.8586 44.1025 87.8586 44.1025L92.4799 43.9149C95.2042 43.8042 99.4691 42.6557 102.327 41.6874C96.6828 54.2474 80.6743 51.4269 66.4783 48.9198Z" fill="#111111"/>
<path d="M119.333 3.5286C118.705 3.25836 118.005 3.25086 117.361 3.50608C116.722 3.7613 116.221 4.24921 115.948 4.87975C115.682 5.49902 115.675 6.18398 115.92 6.80514C116.172 7.4338 116.656 7.92734 117.286 8.19194C117.605 8.32706 117.943 8.39462 118.279 8.39462C118.603 8.39462 118.928 8.33269 119.239 8.20883C120.549 7.68714 121.196 6.2065 120.68 4.9079C120.431 4.28487 119.952 3.7946 119.333 3.5286ZM118.844 7.22174C118.474 7.36999 118.065 7.36812 117.699 7.21236C117.335 7.05848 117.054 6.77511 116.911 6.41105C116.767 6.05262 116.772 5.65854 116.926 5.30011C117.086 4.93042 117.38 4.64329 117.757 4.49317C117.941 4.41998 118.131 4.38245 118.322 4.38245C118.523 4.38245 118.724 4.42373 118.913 4.50443C119.27 4.65831 119.547 4.94167 119.69 5.30011C119.992 6.0545 119.611 6.91586 118.844 7.22174Z" fill="#111111"/>
<path d="M124.624 3.33343C124.099 2.01418 123.08 0.982051 121.757 0.424701C120.442 -0.130772 118.981 -0.143909 117.616 0.400304L84.5282 15.2592C83.8077 14.822 83.0891 14.3678 82.3592 13.97C79.4772 12.4443 76.7378 11.294 73.9778 10.457C70.2872 9.35919 66.8273 8.86939 63.313 8.94258L62.6056 8.97261C61.797 9.00451 60.962 9.03829 60.3991 9.1415L57.5641 9.58813C55.7535 9.96345 53.9222 10.517 51.969 11.2789C48.6123 12.5569 45.7378 14.0601 42.6926 15.6514L42.1316 15.9442C39.1577 17.5543 36.0862 19.4027 32.9941 21.4464C32.7877 21.5871 10.2798 37.5025 6.37334 41.4378C5.99996 41.815 5.6172 42.1847 5.23443 42.5562C3.84786 43.8961 2.4125 45.2848 1.37116 47.0094C0.0971606 49.1224 -0.69088 52.3014 0.847675 54.7447L1.66386 56.3792L2.49881 55.7975C2.49881 55.7975 3.96231 54.7785 6.41462 52.9507L11.3493 49.3495C12.8991 48.2179 14.6102 46.97 16.4865 45.6545C18.5523 44.172 20.817 42.6163 23.2018 40.9911C25.6541 39.3285 28.2002 37.6545 30.7782 36.0163C33.0748 34.5394 35.4764 33.0907 37.9118 31.6232L41.1353 29.739C43.2424 28.523 45.4207 27.2638 47.6348 26.1116C50.483 24.5615 53.5 22.9551 56.2507 21.7053C57.7442 21.0542 59.0463 20.5587 60.2171 20.1947L62.2642 19.703C62.782 19.5773 63.1441 19.5285 63.4913 19.4778C63.7277 19.444 63.9585 19.4121 64.1686 19.3708C66.5627 19.0462 69.2871 19.0593 72.0471 19.4103C72.4749 19.4628 72.9309 19.5472 73.3718 19.6167L69.8125 20.7839C69.6849 20.8346 68.9625 21.1273 68.7505 21.2137L65.0692 21.9981C65.0692 21.9981 60.2134 22.9308 57.671 23.946C52.1191 26.1623 48.693 30.2082 49.8694 33.1601C50.4773 34.6839 52.1435 35.6222 54.5564 35.7986C54.8322 35.8192 55.1174 35.8286 55.4063 35.8286C57.3933 35.8286 59.6543 35.3576 61.8701 34.4718C64.4088 33.4585 68.576 30.7918 68.576 30.7918L71.685 28.8777C71.9477 28.7726 72.7732 28.4404 72.8858 28.3954L78.7286 25.7156C79.0344 25.5936 79.3665 25.4191 79.5035 25.0513C79.5072 25.0438 79.5054 25.0363 79.5072 25.0288L85.8641 22.7994C85.9504 22.8275 86.0442 22.8557 86.1287 22.8838L91.2678 24.6066C92.1534 24.9312 92.9433 25.1845 93.6 25.3966C93.9997 25.5261 94.3487 25.6368 94.6733 25.7513L99.5629 27.277L96.8103 24.5746C96.7578 24.524 95.4932 23.2854 93.1178 21.3281L93.0784 21.2944C92.8007 21.0692 92.5005 20.8271 92.1909 20.5775L121.59 10.2675C122.919 9.73638 123.968 8.72302 124.542 7.41315C125.124 6.10141 125.152 4.6508 124.624 3.33343ZM72.276 17.567C69.364 17.1954 66.4727 17.1804 63.8721 17.5351C63.6432 17.5782 63.4406 17.6064 63.2323 17.6345C62.8345 17.6908 62.418 17.749 61.8458 17.8879C61.8458 17.8879 57.5209 18.9632 55.4926 20.0047C52.7401 21.4196 49.6217 22.9096 46.7604 24.4672C44.5276 25.6288 42.3286 26.8974 40.2047 28.1266L36.9512 30.0295C34.5008 31.5063 32.0841 32.9626 29.7763 34.447C27.1889 36.0927 24.6259 37.7761 22.1567 39.45C19.755 41.0864 17.4791 42.6496 15.4095 44.1358C13.5332 45.4532 11.8108 46.7087 10.2516 47.844L5.31136 51.4508C4.02048 52.4116 3.00728 53.1454 2.34308 53.6239C1.40306 51.7867 2.06914 49.4579 2.966 47.9697C3.87975 46.4534 5.16689 45.2111 6.52719 43.8956C6.91934 43.5147 7.31148 43.1356 7.69612 42.749C11.3136 39.1009 32.9153 23.7522 34.0279 22.9941C37.0656 20.988 40.0902 19.1658 43.0041 17.5895L43.552 17.3024C46.5484 15.7373 49.3759 14.2585 52.6369 13.0162C54.5001 12.29 56.2338 11.7645 57.9337 11.4136L60.6881 10.982C61.1665 10.8938 61.9715 10.8638 62.6788 10.8356L63.3824 10.8056C63.6038 10.7999 63.8271 10.7981 64.0504 10.7981C67.1012 10.7981 70.1821 11.2729 73.4412 12.2431C76.0793 13.0444 78.7117 14.1478 81.4755 15.6134C81.8076 15.7936 82.134 15.9981 82.4624 16.1895L77.387 18.4696C75.5652 18.0624 73.8896 17.7621 72.276 17.567ZM76.5859 20.8064L74.7246 20.5719L76.1018 20.1196C76.1825 20.1365 76.2631 20.1534 76.3419 20.1703C76.3588 20.2228 76.3738 20.2716 76.3964 20.3298L76.5859 20.8064ZM72.7807 21.2094C72.807 21.2169 76.8823 21.6992 76.9348 21.6767L77.2895 22.5643L70.9514 21.8081L72.7807 21.2094ZM61.1759 32.7322C58.8925 33.6424 56.5828 34.0702 54.6952 33.9295C53.061 33.8094 51.9371 33.2764 51.6144 32.4676C50.9502 30.8031 53.5601 27.611 58.369 25.6912C61.0784 24.6103 63.5025 24.3476 65.2662 24.5859L66.9474 28.8008C65.8254 30.1838 63.874 31.6551 61.1759 32.7322ZM71.0958 27.6954L68.5572 29.2493L66.1181 23.1353L69.1351 22.4841C69.2139 22.4541 69.2927 22.4654 69.3734 22.4654C69.4897 23.0715 69.7262 23.8841 70.1952 25.0607C70.5423 25.9258 70.9138 26.7159 71.2441 27.2882C71.2816 27.3539 71.336 27.4383 71.3848 27.519C71.3116 27.5828 71.2197 27.6429 71.0958 27.6954ZM72.655 27.0419C72.5556 26.9124 72.4393 26.7173 72.3173 26.4958L73.6138 26.6028L72.655 27.0419ZM75.218 25.8676C75.1824 25.8564 71.9702 25.6124 71.897 25.6499C71.7357 25.2971 71.5724 24.9256 71.4186 24.539L76.8804 25.1057L75.218 25.8676ZM71.1052 23.702C70.9758 23.3398 70.8707 23.0039 70.7844 22.6999C70.7844 22.6999 77.5822 23.4562 77.6347 23.4337L77.9443 24.2087C77.9593 24.2462 77.9743 24.2725 77.9893 24.3082C77.9893 24.3082 71.184 23.6565 71.1052 23.702ZM91.887 22.8515L88.7348 21.7949L90.1007 21.3164C90.7593 21.8268 91.3841 22.3185 91.9114 22.7445L91.9451 22.7708C92.0183 22.8308 92.0896 22.8909 92.1609 22.9509C92.0708 22.9195 91.9789 22.8857 91.887 22.8515ZM122.842 6.67002C122.465 7.5295 121.778 8.19382 120.943 8.52785L78.9894 23.2404L77.8205 20.311L118.341 2.11552C118.769 1.94475 119.213 1.8603 119.658 1.8603C120.125 1.8603 120.59 1.95413 121.033 2.13991C121.893 2.50209 122.555 3.17016 122.893 4.02214V4.02402C123.236 4.87599 123.215 5.81429 122.842 6.67002Z" fill="#111111"/>
</svg>
