<svg width="19" height="20" viewBox="0 0 19 20" fill="none" xmlns="http://www.w3.org/2000/svg">
<path d="M18.9988 18.5701L17.8076 3.94847C17.7932 3.80176 17.6919 3.67842 17.5513 3.63636L12.9129 2.07948L13.393 1.4589C13.5168 1.30176 13.4904 1.07353 13.3342 0.949102C13.3252 0.94198 13.316 0.935311 13.3064 0.929051L12.2668 0.254037C12.2679 0.238341 12.2679 0.222555 12.2668 0.206859C12.2071 0.0808383 12.0808 0.000408274 11.9419 0H7.17357C7.13138 0.00848303 7.09105 0.0244511 7.05445 0.0471784L5.70444 0.929051C5.53713 1.03806 5.48944 1.26279 5.59786 1.43096C5.60404 1.44057 5.61072 1.44987 5.61781 1.4589L6.1015 2.07948L1.45948 3.63636C1.32204 3.68254 1.22539 3.80684 1.21402 3.9521L0.00117307 18.5665C-0.0147546 18.7663 0.133377 18.9413 0.332089 18.9573C0.342061 18.9581 0.352122 18.9584 0.362139 18.9584H3.36899V19.6371C3.36899 19.8375 3.53061 20 3.72995 20H15.2809C15.4802 20 15.6418 19.8375 15.6418 19.6371V18.9621H18.6379C18.8372 18.9627 18.9993 18.8008 19 18.6003C19 18.5902 18.9996 18.5802 18.9988 18.5701ZM11.9492 0.929051L12.5845 1.32825L10.4187 4.10815L9.99633 3.24442C10.0577 3.22423 10.1125 3.1879 10.1552 3.13918L11.9492 0.929051ZM7.16635 0.845582L9.01089 3.13555C9.02334 3.14739 9.03661 3.15827 9.0506 3.16821L8.58856 4.10452L6.42276 1.32462L7.16635 0.845582ZM3.36899 18.2363H0.751983L0.842224 17.1475H3.36899V18.2363ZM9.14445 19.2778H4.09092V8.32517C4.09092 8.12475 3.9293 7.96226 3.72995 7.96226C3.53061 7.96226 3.36899 8.12475 3.36899 8.32517V16.4144H0.903589L1.92512 4.24605L6.58159 2.68554L8.38642 5.00817C8.46276 5.10665 8.58414 5.15873 8.70768 5.14607C8.83041 5.13292 8.93797 5.05766 8.99284 4.94647L9.15167 4.62348L9.14445 19.2778ZM9.58483 2.69643L8.00018 0.72945H11.1695L9.59565 2.68191L9.58483 2.69643ZM15.2809 7.96226C15.0815 7.96226 14.9199 8.12475 14.9199 8.32517V19.2742H9.86638V17.3798H10.2815C10.4808 17.3798 10.6425 17.2173 10.6425 17.0169C10.6425 16.8165 10.4808 16.654 10.2815 16.654H9.86638V13.943H10.2815C10.4808 13.943 10.6425 13.7805 10.6425 13.5801C10.6425 13.3797 10.4808 13.2172 10.2815 13.2172H9.86638V10.5063H10.2815C10.4808 10.5063 10.6425 10.3438 10.6425 10.1433C10.6425 9.94293 10.4808 9.78044 10.2815 9.78044H9.86638V7.0695H10.2815C10.4808 7.0695 10.6425 6.907 10.6425 6.70659C10.6425 6.50617 10.4808 6.34368 10.2815 6.34368H9.86638V4.61985L10.0252 4.94284C10.0801 5.05403 10.1876 5.12929 10.3104 5.14244H10.3465C10.4576 5.14303 10.5627 5.09218 10.6316 5.00454L12.4365 2.68191L17.0857 4.24605L18.0964 16.4108L15.6418 16.4217V8.32517C15.6418 8.12475 15.4802 7.96226 15.2809 7.96226ZM15.6418 18.2363V17.1475H18.1686L18.248 18.2363H15.6418Z" fill="#1F1F1F"/>
<path d="M1.36563 17.9169C1.49521 17.9169 1.60025 17.8113 1.60025 17.681C1.60025 17.5507 1.49521 17.4451 1.36563 17.4451C1.23604 17.4451 1.131 17.5507 1.131 17.681C1.131 17.8113 1.23604 17.9169 1.36563 17.9169Z" fill="#1F1F1F"/>
<path d="M17.6452 17.9169C17.7748 17.9169 17.8798 17.8113 17.8798 17.681C17.8798 17.5507 17.7748 17.4451 17.6452 17.4451C17.5156 17.4451 17.4106 17.5507 17.4106 17.681C17.4106 17.8113 17.5156 17.9169 17.6452 17.9169Z" fill="#1F1F1F"/>
</svg>
