<svg width="18" height="15" viewBox="0 0 18 15" fill="none" xmlns="http://www.w3.org/2000/svg">
<path d="M12.1677 9.79855C12.0843 9.79792 12.0038 9.82925 11.942 9.88625C11.4507 10.3349 11.0259 10.5609 10.684 10.5609C9.93044 10.5609 9.35617 9.42075 8.64581 7.97703C8.51968 7.72405 8.39022 7.46094 8.25412 7.19783C6.92634 4.60386 3.16542 0.313173 3.00608 0.114155C2.90248 -0.005129 2.73094 -0.0346865 2.59447 0.0433183C-0.353191 1.72991 0.00530882 5.77772 0.021906 5.93626H0.0385032L1.03434 14.7032C1.05458 14.8735 1.19744 15.0012 1.36628 15H2.96957C3.15289 15 3.30151 14.849 3.30151 14.6627V7.7544C5.5189 9.66362 6.89647 12.7096 7.09232 13.1515V14.6559C7.09232 14.8422 7.24094 14.9932 7.42426 14.9932H17.6681C17.8514 14.9932 18 14.8422 18 14.6559V13.0705C17.8473 9.92336 12.4001 9.80192 12.1677 9.79855ZM2.64758 14.3254H1.67167L0.735586 6.34104C1.42134 6.5194 2.0693 6.82345 2.64758 7.23831V14.3254ZM0.669197 5.63267H0.655919C0.645961 4.80962 0.732267 2.11108 2.69406 0.788791C3.47412 1.69618 6.53465 5.30885 7.67322 7.50816C7.80931 7.77127 7.93877 8.031 8.06159 8.28062C8.88149 9.9301 9.5321 11.2355 10.6939 11.2355C11.1819 11.2355 11.7063 10.9859 12.2939 10.4766C13.0341 10.5103 16.7984 10.7768 17.2963 12.7501H7.6699C7.15207 11.6234 4.64589 6.42874 0.669197 5.63267ZM17.3361 14.3254H7.76616V13.4247H17.3361V14.3254Z" fill="#1F1F1F"/>
</svg>
