<svg width="18" height="14" viewBox="0 0 18 14" fill="none" xmlns="http://www.w3.org/2000/svg">
<path d="M13.8128 2.46322V0H4.15V2.54819L0 12.1176L0.210798 12.3016C0.290257 12.371 2.23431 14 8.99967 14C15.7653 14 17.7097 12.371 17.7892 12.3016L18 12.1176L13.8128 2.46322ZM4.8933 0.760031H13.0695V2.17259H4.8933V0.760031ZM15.5934 12.4793C13.4999 13.108 10.8522 13.24 9 13.24C7.14749 13.24 4.4998 13.108 2.40645 12.4793C1.64001 12.2491 1.16976 12.0173 0.919753 11.8717L4.79641 2.93262H6.50814L5.64566 6.84822L6.37082 7.01524L7.27006 2.93262H10.6928L11.592 7.01524L12.3172 6.84822L11.4547 2.93262H13.2033L17.0802 11.8717C16.8302 12.0173 16.3599 12.2491 15.5934 12.4793Z" fill="#1F1F1F"/>
</svg>
