<svg width="60" height="60" viewBox="0 0 60 60" fill="none" xmlns="http://www.w3.org/2000/svg">
<circle cx="30" cy="30" r="30" fill="#543B79"/>
<path d="M19 17H31.9171C34.2995 17 36.2129 17.5317 37.6497 18.6022C39.0866 19.6728 39.8088 21.2824 39.8088 23.4454C39.8088 24.7563 39.4812 25.8779 38.8261 26.8101C38.1709 27.7423 37.2328 28.4706 36.0118 28.9804V29.0532C37.6497 29.3955 38.8931 30.1529 39.7343 31.3255C40.5756 32.5053 41 33.9765 41 35.7535C41 36.7731 40.8139 37.7272 40.4416 38.6084C40.0694 39.4969 39.4887 40.2616 38.692 40.9025C37.8954 41.5434 36.8829 42.0532 35.6396 42.4319C34.3963 42.8106 32.9222 43 31.2098 43H19V17ZM23.6531 27.888H31.247C32.3638 27.888 33.2944 27.5821 34.0389 26.9557C34.7834 26.3294 35.1557 25.4409 35.1557 24.2756C35.1557 22.9647 34.8206 22.0398 34.1506 21.5081C33.4805 20.9765 32.5127 20.707 31.247 20.707H23.6531V27.888ZM23.6531 39.2857H31.8799C33.2944 39.2857 34.3963 38.9289 35.1706 38.2078C35.9523 37.4941 36.3469 36.4745 36.3469 35.1636C36.3469 33.8745 35.9597 32.8913 35.1706 32.1922C34.3814 31.493 33.2944 31.158 31.8799 31.158H23.6531V39.2857Z" fill="white"/>
</svg>
