<svg width="60" height="60" viewBox="0 0 60 60" fill="none" xmlns="http://www.w3.org/2000/svg">
<circle cx="30" cy="30" r="30" fill="#303030"/>
<path d="M23.7512 47.0002C26.9245 47.0002 29.5 44.3868 29.5 41.1668V35.3335H23.7512C20.5778 35.3335 18.0023 37.9468 18.0023 41.1668C18.0023 44.3868 20.5778 47.0002 23.7512 47.0002Z" fill="#02D084"/>
<path d="M18.0023 29.4998C18.0023 26.2798 20.5778 23.6665 23.7512 23.6665H29.5V35.3332H23.7512C20.5778 35.3332 18.0023 32.7198 18.0023 29.4998Z" fill="#A359FF"/>
<path d="M18.002 17.8333C18.002 14.6133 20.5775 12 23.7508 12H29.4997V23.6667H23.7508C20.5775 23.6667 18.002 21.0533 18.002 17.8333Z" fill="#F24C18"/>
<path d="M29.5 12H35.2489C38.4222 12 40.9977 14.6133 40.9977 17.8333C40.9977 21.0533 38.4222 23.6667 35.2489 23.6667H29.5V12Z" fill="#FF7361"/>
<path d="M40.9977 29.4998C40.9977 32.7198 38.4222 35.3332 35.2489 35.3332C32.0755 35.3332 29.5 32.7198 29.5 29.4998C29.5 26.2798 32.0755 23.6665 35.2489 23.6665C38.4222 23.6665 40.9977 26.2798 40.9977 29.4998Z" fill="#12BEFE"/>
</svg>
