<svg width="60" height="60" viewBox="0 0 60 60" fill="none" xmlns="http://www.w3.org/2000/svg">
<circle cx="30" cy="30" r="30" fill="#CF4647"/>
<path d="M21.4011 30.3152C21.3748 30.3526 21.3237 30.4706 21.2539 30.6678C21.1827 30.8664 21.0959 31.114 20.9936 31.4162C20.8914 31.7141 20.7798 32.0495 20.6621 32.4193L20.2949 33.5534C20.1554 33.9392 20.047 34.3162 19.923 34.6876L19.3807 36.4434L19.2723 36.8032C19.2258 36.9227 19.1793 37.0551 19.1018 37.2019C19.0244 37.3458 18.9314 37.4854 18.8384 37.6164C18.73 37.7459 18.6215 37.8567 18.4976 37.9431C18.3736 38.0294 18.2497 38.0726 18.1102 38.0726C17.8933 38.0726 17.7383 38.0035 17.6299 37.8711C17.5214 37.7344 17.475 37.4883 17.475 37.1285V36.8032C17.475 36.6838 17.5369 36.4578 17.6299 36.1297C17.7229 35.7986 17.8313 35.4273 17.9708 35.0128C18.0947 34.5954 18.2497 34.1666 18.3891 33.7218L18.8074 32.5129C18.4356 32.8871 18.0482 33.2613 17.6299 33.6211C17.2116 33.9953 16.7777 34.3263 16.3439 34.6142C15.8946 34.902 15.4452 35.1467 14.9959 35.3338C14.5466 35.5209 14.1127 35.6072 13.6944 35.6072C13.2141 35.6072 12.8113 35.5065 12.4704 35.305C12.1295 35.1035 11.8351 34.8588 11.6182 34.5422C11.4013 34.2256 11.2309 33.8658 11.1224 33.4772C11.062 33.1044 11 32.7014 11 32.3128V32.1689C11 32.1257 11.0062 32.0782 11.0155 32.0336C11.0527 31.314 11.1627 30.58 11.3409 29.8259C11.5268 29.0659 11.7592 28.3147 12.0536 27.5663C12.348 26.8179 12.6888 26.0839 13.0762 25.37C13.479 24.6849 13.8974 24.0085 14.3467 23.3752C14.796 22.742 15.2794 22.1519 15.7877 21.6194C16.299 21.084 16.8211 20.6234 17.3587 20.2377C17.8948 19.8491 18.4371 19.5469 18.9856 19.331C19.5279 19.1151 20.0702 19 20.6063 19C21.2261 19 21.8241 19.1583 22.4036 19.4706C22.9769 19.7916 23.5192 20.2953 24.0274 21.0005C24.142 21.1588 24.2133 21.3172 24.2443 21.4783C24.2753 21.6367 24.2908 21.7907 24.2908 21.9317C24.2908 22.2685 24.2056 22.5362 24.032 22.729C23.8616 22.9305 23.6602 23.0169 23.4123 23.0169C23.1953 23.0169 22.9939 22.9161 22.808 22.7002C22.6221 22.4844 22.4051 22.1821 22.1882 21.7935C21.9713 21.4337 21.7389 21.1747 21.4755 21.0164C21.2121 20.858 20.9332 20.7861 20.6233 20.7861C20.143 20.7861 19.6472 20.9732 19.1049 21.3474C18.5626 21.7216 18.0358 22.1965 17.509 22.801C16.9822 23.4055 16.4709 24.0963 15.9906 24.8735C15.5103 25.6507 15.0765 26.4422 14.7046 27.2626C14.3328 28.083 14.0384 28.8745 13.8215 29.6661C13.6045 30.4577 13.4961 31.1629 13.4961 31.7962C13.4961 32.012 13.5116 32.2279 13.5426 32.4438C13.5736 32.6741 13.6355 32.8612 13.713 33.0483C13.7905 33.2354 13.9144 33.3793 14.0694 33.4944C14.2243 33.6096 14.4102 33.6671 14.6272 33.6671C14.8751 33.6671 15.1694 33.5952 15.4793 33.4369C15.8047 33.2786 16.1301 33.0771 16.4709 32.818C16.8118 32.5589 17.1682 32.2711 17.509 31.9545C17.8499 31.6378 18.1908 31.3068 18.4852 30.9758C18.7795 30.6448 19.0584 30.3281 19.2754 30.0259C19.5078 29.7237 19.6782 29.4646 19.8022 29.2343L20.6993 26.5559C20.8139 26.2724 20.9627 26.0695 21.1532 25.9515C21.3392 25.8306 21.5297 25.7701 21.7265 25.7701C21.8195 25.7701 21.9171 25.7845 22.0132 25.8133C22.1061 25.8421 22.196 25.8881 22.2719 25.9515C22.3494 26.009 22.4067 26.0954 22.4516 26.1961C22.4981 26.2969 22.5291 26.412 22.5291 26.5559C22.5291 26.9157 22.4981 27.2554 22.4361 27.5691C22.3742 27.8858 22.2812 28.188 22.1727 28.4903C22.0798 28.7853 21.9558 29.0861 21.8319 29.3898C21.7079 29.692 21.584 30.0086 21.46 30.3397L21.4011 30.3152ZM34.2658 32.5143C33.9668 32.8885 33.6182 33.2541 33.2215 33.6081C32.8381 33.9535 32.4269 34.271 31.9913 34.558C31.5699 34.8344 31.1546 35.0574 30.7471 35.2258C30.3381 35.3942 29.9724 35.4777 29.6471 35.4777C29.3217 35.4777 29.0536 35.3769 28.8491 35.1755C28.6446 34.974 28.5423 34.6285 28.5423 34.1392C28.5423 33.7938 28.5981 33.3908 28.7066 32.9303C28.5299 33.2181 28.3084 33.5203 28.0434 33.8082C27.78 34.1104 27.4748 34.3839 27.1355 34.6285C26.7946 34.8732 26.4135 35.0747 25.992 35.2186C25.5706 35.3626 25.112 35.4489 24.613 35.4489C24.3915 35.4489 24.1746 35.4201 23.9669 35.3626C23.75 35.305 23.5641 35.2186 23.4092 35.0891C23.2542 34.9596 23.1303 34.7869 23.0218 34.571C22.9288 34.3551 22.8824 34.0816 22.8824 33.765L22.9134 33.4196C22.9443 33.2037 23.0218 32.8439 23.1768 32.369C23.3317 31.894 23.5486 31.2752 23.8585 30.5124C24.1684 29.7496 24.5867 28.8429 25.1445 27.7634C25.2839 27.4756 25.4389 27.2741 25.6403 27.1446C25.8262 27.015 26.0276 26.9575 26.2446 26.9575C26.3375 26.9575 26.4305 26.9719 26.539 27.0007C26.6319 27.015 26.7249 27.0582 26.8178 27.1158C26.9108 27.1734 26.9728 27.2453 27.0348 27.3317C27.0812 27.4036 27.1122 27.5044 27.1122 27.6195C27.1122 27.6915 27.0967 27.7634 27.0812 27.821C27.0348 27.9505 26.9728 28.1089 26.8643 28.3103L26.4615 29.0213C26.3065 29.2804 26.1516 29.5682 25.9812 29.8733C25.8107 30.1799 25.6558 30.5066 25.5163 30.8261C25.3769 31.1571 25.2529 31.4954 25.1445 31.8336C25.036 32.179 24.9741 32.51 24.9586 32.8266C24.9586 32.9706 24.9895 33.0857 25.0515 33.2008C25.1135 33.316 25.2375 33.3735 25.3924 33.3735C25.8262 33.3735 26.2601 33.244 26.6629 32.9706C27.0657 32.7014 27.4376 32.3661 27.7785 31.966C28.1193 31.563 28.4292 31.1312 28.7081 30.6707C28.987 30.2101 29.2039 29.7928 29.3899 29.4128C29.5138 29.1581 29.6378 28.8846 29.7307 28.5924C29.8237 28.3046 29.9321 28.0311 30.0561 27.7865C30.1646 27.5418 30.304 27.3317 30.4589 27.1676C30.5984 27.0035 30.7843 26.9229 31.0167 26.9229C31.2491 26.9229 31.4506 27.0093 31.59 27.182C31.7295 27.3547 31.8069 27.5562 31.8069 27.8009C31.8069 27.9304 31.7604 28.1175 31.6675 28.3478C31.5745 28.578 31.4661 28.8515 31.3266 29.1537L30.8773 30.1281C30.7068 30.4735 30.5674 30.8189 30.428 31.1787C30.2885 31.5313 30.1646 31.8839 30.0716 32.2207C29.9786 32.5661 29.9321 32.8828 29.9321 33.1706C29.9321 33.4441 30.0871 33.5736 30.3815 33.5736C30.5984 33.5736 30.8618 33.516 31.1717 33.3721C31.4815 33.2426 31.8069 33.0555 32.1478 32.8108C32.4887 32.5661 32.8295 32.2783 33.1704 31.9473C33.5113 31.6162 33.8211 31.2651 34.0845 30.8822L34.193 32.4078L34.2658 32.5143Z" fill="white"/>
<path d="M34.5819 31.953C34.5075 32.1257 34.4347 32.3272 34.365 32.5546C34.2922 32.782 34.2565 32.9864 34.2565 33.1663C34.2565 33.2786 34.2767 33.3678 34.3185 33.4354C34.3588 33.5031 34.4363 33.5362 34.5509 33.5362C34.695 33.5362 34.8732 33.4901 35.0886 33.3966C35.3024 33.303 35.5332 33.1807 35.7811 33.0253C36.029 32.8727 36.2893 32.6971 36.5558 32.4985C36.8254 32.297 37.0935 32.0811 37.3584 31.8796C37.6218 31.6637 37.8759 31.4479 38.1176 31.232C38.3593 31.0161 38.5763 30.8146 38.7684 30.6419C38.8211 30.5843 38.8846 30.5555 38.9605 30.5268C39.0349 30.498 39.1 30.4836 39.1542 30.4836C39.2936 30.4836 39.4021 30.5268 39.4951 30.6419C39.588 30.7426 39.6345 30.8866 39.6345 31.0593C39.6345 31.2176 39.588 31.3903 39.4951 31.5774C39.4021 31.7645 39.2317 31.9516 38.9992 32.1387C38.5654 32.5705 38.1316 32.9878 37.6823 33.3908C37.2484 33.7794 36.7991 34.1392 36.3653 34.4414C35.9314 34.7437 35.4976 34.974 35.0638 35.1611C34.6299 35.3338 34.2116 35.4201 33.8087 35.4201C33.5299 35.4201 33.2974 35.3769 33.1115 35.2906C32.9256 35.2042 32.7861 35.0891 32.6622 34.9452C32.5537 34.8013 32.4763 34.6285 32.4298 34.4414C32.3833 34.24 32.3678 34.0385 32.3678 33.8226C32.3678 33.4484 32.4143 33.0742 32.5227 32.6856C32.6312 32.297 32.7397 31.9372 32.8791 31.6206C33.127 31.0305 33.3594 30.4548 33.6073 29.8791L34.2891 28.296L37.3708 21.0869C37.487 20.799 37.6497 20.5947 37.8589 20.468C38.0696 20.3529 38.2772 20.2953 38.4895 20.2953C38.7064 20.2953 38.8923 20.3529 39.069 20.4824C39.2394 20.6062 39.3324 20.8134 39.3324 21.097C39.3324 21.2308 39.3014 21.3733 39.2472 21.523C39.1852 21.6669 39.1232 21.831 39.0302 22.0022C38.8598 22.3505 38.6584 22.7794 38.426 23.2889L37.6513 24.9584C37.3879 25.5557 37.109 26.1817 36.8301 26.8294L35.9934 28.7292C35.7145 29.3452 35.4666 29.9237 35.2342 30.4764L34.6299 31.9055L34.5819 31.953Z" fill="white"/>
<path d="M49.0378 29.9237C49.1354 29.8618 49.2238 29.8129 49.3059 29.7755C49.3864 29.7381 49.4655 29.7179 49.5383 29.7179C49.6886 29.7179 49.8017 29.7812 49.876 29.905C49.9535 30.0288 50 30.1785 50 30.3598C50 30.5541 49.9535 30.7527 49.8606 30.9542C49.7676 31.1557 49.6436 31.3255 49.4577 31.4579C48.7295 32.0581 48.0787 32.605 47.521 33.0987C46.9477 33.5923 46.4209 34.0169 45.9096 34.3724C45.3983 34.7322 44.9025 35.0056 44.4222 35.2071C43.9418 35.4086 43.4305 35.5094 42.8727 35.5094C42.3614 35.5094 41.9586 35.4086 41.6797 35.1927C41.4008 34.9912 41.2614 34.7034 41.2614 34.3292V34.2428C41.2614 34.2284 41.2769 34.1853 41.2769 34.1565C41.3079 33.9406 41.4163 33.6815 41.6022 33.3793C41.7882 33.0915 42.0051 32.7892 42.2685 32.4726C42.5319 32.156 42.8108 31.8393 43.1052 31.5227C43.3995 31.2061 43.6629 30.9038 43.9263 30.616C44.1742 30.3281 44.3757 30.0691 44.5461 29.8244C44.7165 29.5941 44.794 29.3926 44.794 29.2487C44.794 29.1624 44.763 29.0904 44.6979 29.0328C44.6251 28.9897 44.512 28.9609 44.3571 28.9609C44.0782 28.9609 43.7993 29.0328 43.5111 29.1624C43.2167 29.2919 42.9285 29.479 42.6434 29.6949C42.3645 29.9252 42.0857 30.1698 41.8192 30.4577C41.5527 30.7455 41.3079 31.0478 41.0599 31.35C40.8275 31.6666 40.6106 31.9689 40.4092 32.2855C40.2233 32.6021 40.0528 32.89 39.9134 33.149L39.743 33.4944L39.5105 34.0126L39.2317 34.5883L38.9683 35.1495L38.7513 35.6245C38.6894 35.7684 38.6429 35.8548 38.6119 35.9123C38.5809 35.9843 38.5344 36.1138 38.457 36.3009L38.1781 36.9601L37.8527 37.7517L37.2794 39.188C37.2019 39.3751 37.1555 39.5018 37.14 39.5694C37.0625 39.7565 36.985 39.9436 36.8921 40.1163C36.7991 40.289 36.6984 40.4373 36.5791 40.5682C36.4613 40.6978 36.325 40.8057 36.1716 40.8849C36.0166 40.9568 35.8462 41 35.6603 41C35.4124 41 35.211 40.9424 35.056 40.8388C34.9011 40.7381 34.8081 40.5222 34.8081 40.2199C34.8081 40.076 34.8236 39.9177 34.8701 39.7594C34.9011 39.6011 34.9631 39.4543 35.025 39.2988C35.0715 39.1405 35.149 38.9966 35.211 38.8527C35.2729 38.7088 35.3349 38.5648 35.3814 38.4267C35.7378 37.6783 36.1174 36.9299 36.497 36.1728C36.8766 35.4158 37.2407 34.676 37.597 33.942C37.9472 33.208 38.271 32.4884 38.5732 31.7688C38.8675 31.0636 39.1154 30.3785 39.3169 29.7251L39.5338 29.1552C39.6268 28.9105 39.7352 28.6658 39.8592 28.4356C39.9831 28.2053 40.1226 27.9894 40.2775 27.8167C40.4324 27.644 40.6029 27.5533 40.7733 27.5533C41.0522 27.5533 41.249 27.6109 41.3714 27.726C41.4953 27.8527 41.5573 28.0139 41.5573 28.2441C41.5573 28.2873 41.5511 28.3593 41.5372 28.46C41.5217 28.5608 41.5062 28.6615 41.4814 28.7695L41.4148 29.0717C41.3993 29.1724 41.3683 29.2444 41.3528 29.2876C41.6007 29.0343 41.8796 28.7839 42.1709 28.532C42.4653 28.283 42.7751 28.057 43.085 27.8556C43.3949 27.6541 43.7203 27.4814 44.0456 27.359C44.371 27.2295 44.6964 27.1647 45.0218 27.1647C45.2542 27.1647 45.4711 27.1935 45.6973 27.2511C45.9142 27.3115 46.1157 27.3993 46.2861 27.5159C46.4674 27.631 46.6084 27.775 46.7168 27.9477C46.8253 28.1204 46.8795 28.3262 46.8795 28.5579C46.8795 28.8645 46.7927 29.1912 46.6316 29.5366C46.4612 29.8877 46.2597 30.2418 46.0025 30.5872C45.7546 30.9413 45.4804 31.2838 45.1876 31.6163C44.8932 31.9473 44.6298 32.2495 44.3664 32.523L43.7156 33.2282C43.5452 33.4153 43.4522 33.5448 43.4491 33.6168C43.4491 33.7031 43.4801 33.7751 43.5421 33.8327C43.6041 33.8902 43.7125 33.919 43.852 33.919C43.9728 33.919 44.1433 33.8542 44.3633 33.7319C44.5926 33.6024 44.9056 33.4009 45.3084 33.1044C45.7113 32.8022 46.2319 32.4136 46.8532 31.9099C47.4729 31.4119 48.2476 30.7873 49.1571 30.0288L49.0378 29.9237Z" fill="white"/>
<path d="M21.4011 30.3152C21.3748 30.3526 21.3237 30.4706 21.2539 30.6678C21.1827 30.8664 21.0959 31.114 20.9936 31.4162C20.8914 31.7141 20.7798 32.0495 20.6621 32.4193L20.2949 33.5534C20.1554 33.9392 20.047 34.3162 19.923 34.6876L19.3807 36.4434L19.2723 36.8032C19.2258 36.9227 19.1793 37.0551 19.1018 37.2019C19.0244 37.3458 18.9314 37.4854 18.8384 37.6164C18.73 37.7459 18.6215 37.8567 18.4976 37.9431C18.3736 38.0294 18.2497 38.0726 18.1102 38.0726C17.8933 38.0726 17.7383 38.0035 17.6299 37.8711C17.5214 37.7344 17.475 37.4883 17.475 37.1285V36.8032C17.475 36.6838 17.5369 36.4578 17.6299 36.1297C17.7229 35.7986 17.8313 35.4273 17.9708 35.0128C18.0947 34.5954 18.2497 34.1666 18.3891 33.7218L18.8074 32.5129C18.4356 32.8871 18.0482 33.2613 17.6299 33.6211C17.2116 33.9953 16.7777 34.3263 16.3439 34.6142C15.8946 34.902 15.4452 35.1467 14.9959 35.3338C14.5466 35.5209 14.1127 35.6072 13.6944 35.6072C13.2141 35.6072 12.8113 35.5065 12.4704 35.305C12.1295 35.1035 11.8351 34.8588 11.6182 34.5422C11.4013 34.2256 11.2309 33.8658 11.1224 33.4772C11.062 33.1044 11 32.7014 11 32.3128V32.1689C11 32.1257 11.0062 32.0782 11.0155 32.0336C11.0527 31.314 11.1627 30.58 11.3409 29.8259C11.5268 29.0659 11.7592 28.3147 12.0536 27.5663C12.348 26.8179 12.6888 26.0839 13.0762 25.37C13.479 24.6849 13.8974 24.0085 14.3467 23.3752C14.796 22.742 15.2794 22.1519 15.7877 21.6194C16.299 21.084 16.8211 20.6234 17.3587 20.2377C17.8948 19.8491 18.4371 19.5469 18.9856 19.331C19.5279 19.1151 20.0702 19 20.6063 19C21.2261 19 21.8241 19.1583 22.4036 19.4706C22.9769 19.7916 23.5192 20.2953 24.0274 21.0005C24.142 21.1588 24.2133 21.3172 24.2443 21.4783C24.2753 21.6367 24.2908 21.7907 24.2908 21.9317C24.2908 22.2685 24.2056 22.5362 24.032 22.729C23.8616 22.9305 23.6602 23.0169 23.4123 23.0169C23.1953 23.0169 22.9939 22.9161 22.808 22.7002C22.6221 22.4844 22.4051 22.1821 22.1882 21.7935C21.9713 21.4337 21.7389 21.1747 21.4755 21.0164C21.2121 20.858 20.9332 20.7861 20.6233 20.7861C20.143 20.7861 19.6472 20.9732 19.1049 21.3474C18.5626 21.7216 18.0358 22.1965 17.509 22.801C16.9822 23.4055 16.4709 24.0963 15.9906 24.8735C15.5103 25.6507 15.0765 26.4422 14.7046 27.2626C14.3328 28.083 14.0384 28.8745 13.8215 29.6661C13.6045 30.4577 13.4961 31.1629 13.4961 31.7962C13.4961 32.012 13.5116 32.2279 13.5426 32.4438C13.5736 32.6741 13.6355 32.8612 13.713 33.0483C13.7905 33.2354 13.9144 33.3793 14.0694 33.4944C14.2243 33.6096 14.4102 33.6671 14.6272 33.6671C14.8751 33.6671 15.1694 33.5952 15.4793 33.4369C15.8047 33.2786 16.1301 33.0771 16.4709 32.818C16.8118 32.5589 17.1682 32.2711 17.509 31.9545C17.8499 31.6378 18.1908 31.3068 18.4852 30.9758C18.7795 30.6448 19.0584 30.3281 19.2754 30.0259C19.5078 29.7237 19.6782 29.4646 19.8022 29.2343L20.6993 26.5559C20.8139 26.2724 20.9627 26.0695 21.1532 25.9515C21.3392 25.8306 21.5297 25.7701 21.7265 25.7701C21.8195 25.7701 21.9171 25.7845 22.0132 25.8133C22.1061 25.8421 22.196 25.8881 22.2719 25.9515C22.3494 26.009 22.4067 26.0954 22.4516 26.1961C22.4981 26.2969 22.5291 26.412 22.5291 26.5559C22.5291 26.9157 22.4981 27.2554 22.4361 27.5691C22.3742 27.8858 22.2812 28.188 22.1727 28.4903C22.0798 28.7853 21.9558 29.0861 21.8319 29.3898C21.7079 29.692 21.584 30.0086 21.46 30.3397L21.4011 30.3152ZM34.2658 32.5143C33.9668 32.8885 33.6182 33.2541 33.2215 33.6081C32.8381 33.9535 32.4269 34.271 31.9913 34.558C31.5699 34.8344 31.1546 35.0574 30.7471 35.2258C30.3381 35.3942 29.9724 35.4777 29.6471 35.4777C29.3217 35.4777 29.0536 35.3769 28.8491 35.1755C28.6446 34.974 28.5423 34.6285 28.5423 34.1392C28.5423 33.7938 28.5981 33.3908 28.7066 32.9303C28.5299 33.2181 28.3084 33.5203 28.0434 33.8082C27.78 34.1104 27.4748 34.3839 27.1355 34.6285C26.7946 34.8732 26.4135 35.0747 25.992 35.2186C25.5706 35.3626 25.112 35.4489 24.613 35.4489C24.3915 35.4489 24.1746 35.4201 23.9669 35.3626C23.75 35.305 23.5641 35.2186 23.4092 35.0891C23.2542 34.9596 23.1303 34.7869 23.0218 34.571C22.9288 34.3551 22.8824 34.0816 22.8824 33.765L22.9134 33.4196C22.9443 33.2037 23.0218 32.8439 23.1768 32.369C23.3317 31.894 23.5486 31.2752 23.8585 30.5124C24.1684 29.7496 24.5867 28.8429 25.1445 27.7634C25.2839 27.4756 25.4389 27.2741 25.6403 27.1446C25.8262 27.015 26.0276 26.9575 26.2446 26.9575C26.3375 26.9575 26.4305 26.9719 26.539 27.0007C26.6319 27.015 26.7249 27.0582 26.8178 27.1158C26.9108 27.1734 26.9728 27.2453 27.0348 27.3317C27.0812 27.4036 27.1122 27.5044 27.1122 27.6195C27.1122 27.6915 27.0967 27.7634 27.0812 27.821C27.0348 27.9505 26.9728 28.1089 26.8643 28.3103L26.4615 29.0213C26.3065 29.2804 26.1516 29.5682 25.9812 29.8733C25.8107 30.1799 25.6558 30.5066 25.5163 30.8261C25.3769 31.1571 25.2529 31.4954 25.1445 31.8336C25.036 32.179 24.9741 32.51 24.9586 32.8266C24.9586 32.9706 24.9895 33.0857 25.0515 33.2008C25.1135 33.316 25.2375 33.3735 25.3924 33.3735C25.8262 33.3735 26.2601 33.244 26.6629 32.9706C27.0657 32.7014 27.4376 32.3661 27.7785 31.966C28.1193 31.563 28.4292 31.1312 28.7081 30.6707C28.987 30.2101 29.2039 29.7928 29.3899 29.4128C29.5138 29.1581 29.6378 28.8846 29.7307 28.5924C29.8237 28.3046 29.9321 28.0311 30.0561 27.7865C30.1646 27.5418 30.304 27.3317 30.4589 27.1676C30.5984 27.0035 30.7843 26.9229 31.0167 26.9229C31.2491 26.9229 31.4506 27.0093 31.59 27.182C31.7295 27.3547 31.8069 27.5562 31.8069 27.8009C31.8069 27.9304 31.7604 28.1175 31.6675 28.3478C31.5745 28.578 31.4661 28.8515 31.3266 29.1537L30.8773 30.1281C30.7068 30.4735 30.5674 30.8189 30.428 31.1787C30.2885 31.5313 30.1646 31.8839 30.0716 32.2207C29.9786 32.5661 29.9321 32.8828 29.9321 33.1706C29.9321 33.4441 30.0871 33.5736 30.3815 33.5736C30.5984 33.5736 30.8618 33.516 31.1717 33.3721C31.4815 33.2426 31.8069 33.0555 32.1478 32.8108C32.4887 32.5661 32.8295 32.2783 33.1704 31.9473C33.5113 31.6162 33.8211 31.2651 34.0845 30.8822L34.193 32.4078L34.2658 32.5143Z" stroke="white" stroke-miterlimit="10"/>
<path d="M34.5819 31.953C34.5075 32.1257 34.4347 32.3272 34.365 32.5546C34.2922 32.782 34.2565 32.9864 34.2565 33.1663C34.2565 33.2786 34.2767 33.3678 34.3185 33.4354C34.3588 33.5031 34.4363 33.5362 34.5509 33.5362C34.695 33.5362 34.8732 33.4901 35.0886 33.3966C35.3024 33.303 35.5332 33.1807 35.7811 33.0253C36.029 32.8727 36.2893 32.6971 36.5558 32.4985C36.8254 32.297 37.0935 32.0811 37.3584 31.8796C37.6218 31.6637 37.8759 31.4479 38.1176 31.232C38.3593 31.0161 38.5763 30.8146 38.7684 30.6419C38.8211 30.5843 38.8846 30.5555 38.9605 30.5268C39.0349 30.498 39.1 30.4836 39.1542 30.4836C39.2936 30.4836 39.4021 30.5268 39.4951 30.6419C39.588 30.7426 39.6345 30.8866 39.6345 31.0593C39.6345 31.2176 39.588 31.3903 39.4951 31.5774C39.4021 31.7645 39.2317 31.9516 38.9992 32.1387C38.5654 32.5705 38.1316 32.9878 37.6823 33.3908C37.2484 33.7794 36.7991 34.1392 36.3653 34.4414C35.9314 34.7437 35.4976 34.974 35.0638 35.1611C34.6299 35.3338 34.2116 35.4201 33.8087 35.4201C33.5299 35.4201 33.2974 35.3769 33.1115 35.2906C32.9256 35.2042 32.7861 35.0891 32.6622 34.9452C32.5537 34.8013 32.4763 34.6285 32.4298 34.4414C32.3833 34.24 32.3678 34.0385 32.3678 33.8226C32.3678 33.4484 32.4143 33.0742 32.5227 32.6856C32.6312 32.297 32.7397 31.9372 32.8791 31.6206C33.127 31.0305 33.3594 30.4548 33.6073 29.8791L34.2891 28.296L37.3708 21.0869C37.487 20.799 37.6497 20.5947 37.8589 20.468C38.0696 20.3529 38.2772 20.2953 38.4895 20.2953C38.7064 20.2953 38.8923 20.3529 39.069 20.4824C39.2394 20.6062 39.3324 20.8134 39.3324 21.097C39.3324 21.2308 39.3014 21.3733 39.2472 21.523C39.1852 21.6669 39.1232 21.831 39.0302 22.0022C38.8598 22.3505 38.6584 22.7794 38.426 23.2889L37.6513 24.9584C37.3879 25.5557 37.109 26.1817 36.8301 26.8294L35.9934 28.7292C35.7145 29.3452 35.4666 29.9237 35.2342 30.4764L34.6299 31.9055L34.5819 31.953Z" stroke="white" stroke-miterlimit="10"/>
<path d="M49.0378 29.9237C49.1354 29.8618 49.2238 29.8129 49.3059 29.7755C49.3864 29.7381 49.4655 29.7179 49.5383 29.7179C49.6886 29.7179 49.8017 29.7812 49.876 29.905C49.9535 30.0288 50 30.1785 50 30.3598C50 30.5541 49.9535 30.7527 49.8606 30.9542C49.7676 31.1557 49.6436 31.3255 49.4577 31.4579C48.7295 32.0581 48.0787 32.605 47.521 33.0987C46.9477 33.5923 46.4209 34.0169 45.9096 34.3724C45.3983 34.7322 44.9025 35.0056 44.4222 35.2071C43.9418 35.4086 43.4305 35.5094 42.8727 35.5094C42.3614 35.5094 41.9586 35.4086 41.6797 35.1927C41.4008 34.9912 41.2614 34.7034 41.2614 34.3292V34.2428C41.2614 34.2284 41.2769 34.1853 41.2769 34.1565C41.3079 33.9406 41.4163 33.6815 41.6022 33.3793C41.7882 33.0915 42.0051 32.7892 42.2685 32.4726C42.5319 32.156 42.8108 31.8393 43.1052 31.5227C43.3995 31.2061 43.6629 30.9038 43.9263 30.616C44.1742 30.3281 44.3757 30.0691 44.5461 29.8244C44.7165 29.5941 44.794 29.3926 44.794 29.2487C44.794 29.1624 44.763 29.0904 44.6979 29.0328C44.6251 28.9897 44.512 28.9609 44.3571 28.9609C44.0782 28.9609 43.7993 29.0328 43.5111 29.1624C43.2167 29.2919 42.9285 29.479 42.6434 29.6949C42.3645 29.9252 42.0857 30.1698 41.8192 30.4577C41.5527 30.7455 41.3079 31.0478 41.0599 31.35C40.8275 31.6666 40.6106 31.9689 40.4092 32.2855C40.2233 32.6021 40.0528 32.89 39.9134 33.149L39.743 33.4944L39.5105 34.0126L39.2317 34.5883L38.9683 35.1495L38.7513 35.6245C38.6894 35.7684 38.6429 35.8548 38.6119 35.9123C38.5809 35.9843 38.5344 36.1138 38.457 36.3009L38.1781 36.9601L37.8527 37.7517L37.2794 39.188C37.2019 39.3751 37.1555 39.5018 37.14 39.5694C37.0625 39.7565 36.985 39.9436 36.8921 40.1163C36.7991 40.289 36.6984 40.4373 36.5791 40.5682C36.4613 40.6978 36.325 40.8057 36.1716 40.8849C36.0166 40.9568 35.8462 41 35.6603 41C35.4124 41 35.211 40.9424 35.056 40.8388C34.9011 40.7381 34.8081 40.5222 34.8081 40.2199C34.8081 40.076 34.8236 39.9177 34.8701 39.7594C34.9011 39.6011 34.9631 39.4543 35.025 39.2988C35.0715 39.1405 35.149 38.9966 35.211 38.8527C35.2729 38.7088 35.3349 38.5648 35.3814 38.4267C35.7378 37.6783 36.1174 36.9299 36.497 36.1728C36.8766 35.4158 37.2407 34.676 37.597 33.942C37.9472 33.208 38.271 32.4884 38.5732 31.7688C38.8675 31.0636 39.1154 30.3785 39.3169 29.7251L39.5338 29.1552C39.6268 28.9105 39.7352 28.6658 39.8592 28.4356C39.9831 28.2053 40.1226 27.9894 40.2775 27.8167C40.4324 27.644 40.6029 27.5533 40.7733 27.5533C41.0522 27.5533 41.249 27.6109 41.3714 27.726C41.4953 27.8527 41.5573 28.0139 41.5573 28.2441C41.5573 28.2873 41.5511 28.3593 41.5372 28.46C41.5217 28.5608 41.5062 28.6615 41.4814 28.7695L41.4148 29.0717C41.3993 29.1724 41.3683 29.2444 41.3528 29.2876C41.6007 29.0343 41.8796 28.7839 42.1709 28.532C42.4653 28.283 42.7751 28.057 43.085 27.8556C43.3949 27.6541 43.7203 27.4814 44.0456 27.359C44.371 27.2295 44.6964 27.1647 45.0218 27.1647C45.2542 27.1647 45.4711 27.1935 45.6973 27.2511C45.9142 27.3115 46.1157 27.3993 46.2861 27.5159C46.4674 27.631 46.6084 27.775 46.7168 27.9477C46.8253 28.1204 46.8795 28.3262 46.8795 28.5579C46.8795 28.8645 46.7927 29.1912 46.6316 29.5366C46.4612 29.8877 46.2597 30.2418 46.0025 30.5872C45.7546 30.9413 45.4804 31.2838 45.1876 31.6163C44.8932 31.9473 44.6298 32.2495 44.3664 32.523L43.7156 33.2282C43.5452 33.4153 43.4522 33.5448 43.4491 33.6168C43.4491 33.7031 43.4801 33.7751 43.5421 33.8327C43.6041 33.8902 43.7125 33.919 43.852 33.919C43.9728 33.919 44.1433 33.8542 44.3633 33.7319C44.5926 33.6024 44.9056 33.4009 45.3084 33.1044C45.7113 32.8022 46.2319 32.4136 46.8532 31.9099C47.4729 31.4119 48.2476 30.7873 49.1571 30.0288L49.0378 29.9237Z" stroke="white" stroke-miterlimit="10"/>
</svg>
