<svg width="60" height="60" viewBox="0 0 60 60" fill="none" xmlns="http://www.w3.org/2000/svg">
<circle cx="30" cy="30" r="30" fill="#CD6799"/>
<path d="M44.4431 32.2458C43.0477 32.2531 41.8348 32.5892 40.8193 33.0861C40.4467 32.3481 40.074 31.6905 40.0083 31.2083C39.9352 30.6457 39.8476 30.3022 39.9352 29.63C40.0229 28.9578 40.4174 28.0006 40.4101 27.9275C40.4028 27.8545 40.3225 27.5111 39.5188 27.5038C38.7151 27.4964 38.021 27.6572 37.9407 27.8691C37.8603 28.081 37.7069 28.5632 37.6046 29.0601C37.4657 29.7908 35.9972 32.3993 35.157 33.7656C34.8867 33.2322 34.6529 32.7646 34.6017 32.392C34.5287 31.8293 34.441 31.4859 34.5287 30.8137C34.6164 30.1415 35.0109 29.1843 35.0036 29.1112C34.9963 29.0382 34.9159 28.6948 34.1122 28.6874C33.3085 28.6801 32.6145 28.8409 32.5341 29.0528C32.4537 29.2647 32.3661 29.7615 32.198 30.2438C32.03 30.726 30.0792 35.0808 29.5678 36.2061C29.3048 36.7833 29.0783 37.2436 28.9175 37.5578C28.9175 37.5578 28.9102 37.5797 28.8883 37.6163C28.7495 37.8866 28.6691 38.0328 28.6691 38.0328C28.6691 38.0328 28.6691 38.0328 28.6691 38.0401C28.5595 38.2374 28.4426 38.42 28.3842 38.42C28.3404 38.42 28.26 37.8939 28.3988 37.1779C28.6911 35.6654 29.3851 33.3126 29.3778 33.2322C29.3778 33.1884 29.5093 32.7792 28.9249 32.5673C28.355 32.3554 28.1504 32.7062 28.0993 32.7062C28.0481 32.7062 28.0116 32.8304 28.0116 32.8304C28.0116 32.8304 28.6472 30.1853 26.7988 30.1853C25.6444 30.1853 24.0517 31.4494 23.2626 32.5892C22.7658 32.8596 21.7064 33.4368 20.5739 34.0579C20.1429 34.299 19.6972 34.5401 19.2807 34.7667C19.2515 34.7374 19.2223 34.7009 19.1931 34.6717C16.9574 32.2824 12.8221 30.5945 12.9974 27.3868C13.0632 26.2178 13.465 23.1489 20.9392 19.4225C27.091 16.3902 31.9861 17.2305 32.8336 19.0937C34.0465 21.7534 30.2107 26.6927 23.8544 27.4088C21.4287 27.6791 20.1575 26.7439 19.836 26.3931C19.4999 26.0278 19.4488 26.0059 19.3246 26.0789C19.12 26.1885 19.2515 26.5173 19.3246 26.7073C19.5145 27.2042 20.2963 28.081 21.6187 28.5121C22.7877 28.892 25.6298 29.1039 29.071 27.7741C32.9213 26.2835 35.9315 22.1406 35.0474 18.6699C34.1634 15.1481 28.3184 13.9863 22.7877 15.9518C19.4999 17.1209 15.9345 18.9622 13.3701 21.3588C10.3234 24.2084 9.84118 26.6854 10.0384 27.723C10.7471 31.4056 15.8249 33.8022 17.856 35.5777C17.7537 35.6362 17.6588 35.6873 17.5784 35.7311C16.5628 36.2353 12.6906 38.2593 11.7262 40.4001C10.6302 42.826 11.9015 44.565 12.7417 44.7988C15.35 45.5222 18.0314 44.2216 19.4707 42.0734C20.91 39.9252 20.7347 37.134 20.0698 35.8554C20.0625 35.8407 20.0552 35.8261 20.0406 35.8115C20.3036 35.6581 20.5739 35.4973 20.8369 35.3439C21.3557 35.037 21.8671 34.752 22.3055 34.5182C22.0571 35.1978 21.8744 36.0088 21.7867 37.1779C21.6772 38.5515 22.2397 40.3344 22.9776 41.0358C23.3064 41.3427 23.6936 41.35 23.9421 41.35C24.8042 41.35 25.1914 40.634 25.6225 39.7864C26.1485 38.7488 26.6234 37.5432 26.6234 37.5432C26.6234 37.5432 26.0316 40.802 27.639 40.802C28.2235 40.802 28.8153 40.0421 29.0783 39.6549C29.0783 39.6622 29.0783 39.6622 29.0783 39.6622C29.0783 39.6622 29.0929 39.6402 29.1221 39.5891C29.1806 39.4941 29.2171 39.4357 29.2171 39.4357C29.2171 39.4357 29.2171 39.4284 29.2171 39.421C29.4509 39.0119 29.9769 38.0839 30.7587 36.5422C31.767 34.5548 32.7387 32.0705 32.7387 32.0705C32.7387 32.0705 32.8263 32.6769 33.1259 33.6853C33.3012 34.2771 33.6665 34.9274 33.9588 35.5558C33.725 35.8846 33.5789 36.0672 33.5789 36.0672C33.5789 36.0672 33.5789 36.0672 33.5862 36.0746C33.3962 36.323 33.1917 36.5933 32.9652 36.8564C32.1688 37.8063 31.219 38.895 31.0875 39.2091C30.934 39.5818 30.9706 39.8521 31.2628 40.0713C31.4747 40.2321 31.8546 40.254 32.2418 40.2321C32.9579 40.1809 33.462 40.0056 33.7104 39.896C34.0976 39.7572 34.5506 39.5453 34.9744 39.2311C35.7561 38.6538 36.231 37.8282 36.1872 36.7395C36.1653 36.1403 35.968 35.5412 35.7269 34.9785C35.7999 34.8763 35.8657 34.774 35.9388 34.6717C37.1735 32.8669 38.1306 30.8868 38.1306 30.8868C38.1306 30.8868 38.2183 31.4932 38.5178 32.5016C38.664 33.013 38.9635 33.5683 39.2265 34.109C38.0649 35.0516 37.3489 36.1476 37.0931 36.8637C36.6328 38.1935 36.9909 38.7927 37.6703 38.9315C37.9772 38.9973 38.4156 38.8511 38.737 38.7123C39.1462 38.5808 39.6284 38.3543 40.0887 38.0182C40.8704 37.4409 41.623 36.6372 41.5791 35.5485C41.5572 35.0516 41.4257 34.5621 41.243 34.0871C42.2294 33.6779 43.5006 33.4514 45.1226 33.6414C48.6003 34.0506 49.2871 36.2207 49.1556 37.134C49.0241 38.0474 48.2935 38.5442 48.0524 38.6977C47.8113 38.8511 47.7309 38.9023 47.7528 39.0119C47.782 39.1726 47.8989 39.1653 48.1035 39.1361C48.3885 39.0849 49.9301 38.3981 49.9958 36.7176C50.1054 34.5694 48.0597 32.2239 44.4431 32.2458ZM17.6149 41.2916C16.4606 42.5483 14.8532 43.0233 14.1591 42.6214C13.4139 42.1903 13.7061 40.3344 15.1235 39.0046C15.9857 38.1935 17.0962 37.4409 17.8341 36.9806C18.0022 36.8783 18.2506 36.7322 18.5501 36.5495C18.6013 36.5203 18.6305 36.5057 18.6305 36.5057C18.6889 36.4691 18.7474 36.4326 18.8058 36.3961C19.3246 38.2958 18.8278 39.969 17.6149 41.2916ZM26.017 35.5777C25.6152 36.5568 24.775 39.063 24.2635 38.9242C23.8252 38.8073 23.5548 36.9075 24.1759 35.0297C24.49 34.0871 25.1549 32.9619 25.5421 32.5235C26.1704 31.822 26.8645 31.5882 27.0326 31.8732C27.2444 32.2458 26.2654 34.9639 26.017 35.5777ZM32.9505 38.895C32.7825 38.9826 32.6218 39.0411 32.5487 38.9973C32.4976 38.968 32.6218 38.8511 32.6218 38.8511C32.6218 38.8511 33.4912 37.9159 33.8346 37.4921C34.0319 37.2436 34.2657 36.9514 34.5141 36.6226C34.5141 36.6518 34.5141 36.6883 34.5141 36.7176C34.5141 37.8355 33.4328 38.5881 32.9505 38.895ZM38.2987 37.6747C38.1744 37.5871 38.1964 37.2948 38.6128 36.3814C38.7736 36.0234 39.1535 35.4243 39.8037 34.847C39.8768 35.0808 39.9279 35.3073 39.9206 35.5192C39.9133 36.9294 38.9051 37.4555 38.2987 37.6747Z" fill="white"/>
</svg>
