<svg width="60" height="60" viewBox="0 0 60 60" fill="none" xmlns="http://www.w3.org/2000/svg">
<circle cx="30" cy="30" r="30" fill="#015798"/>
<path d="M20.6023 19.1227L24.3991 32.4382L28.1954 19.1227H38.4883V20.4463L34.6127 27.3338C35.9742 27.784 37.0038 28.6038 37.7018 29.7919C38.4003 30.9806 38.7498 32.3754 38.7498 33.9778C38.7498 35.9593 38.2386 37.6246 37.2172 38.9746C36.1959 40.3246 34.8738 41 33.2507 41C32.0285 41 30.9641 40.5999 30.057 39.7986C29.1492 38.9972 28.4774 37.9127 28.0411 36.5438L30.1875 35.6255C30.5019 36.4539 30.9167 37.1067 31.4317 37.5833C31.9465 38.0605 32.5532 38.2994 33.2512 38.2994C33.9837 38.2994 34.6039 37.8762 35.11 37.0303C35.6166 36.1839 35.8698 35.167 35.8698 33.9776C35.8698 32.663 35.5991 31.6454 35.0585 30.9254C34.4291 30.0795 33.4429 29.6558 32.099 29.6558H31.0524V28.3597L34.7175 21.8231H30.2937L30.042 22.2652L24.6607 40.9965H24.3989L20.4711 27.4389L16.5442 40.9965H16.2827L10 19.1217H12.749L16.5453 32.4373L19.1116 23.471L17.8551 19.1222H20.6034V19.1213L20.6023 19.1227Z" fill="white"/>
<path d="M49.4041 19L49.8493 21.7928L48.273 24.9041C48.273 24.9041 47.6682 23.584 46.6627 22.854C45.816 22.2386 45.264 22.1046 44.401 22.2883C43.2928 22.5241 42.0361 23.891 41.4876 25.5763C40.8315 27.5923 40.825 28.5685 40.8017 29.4645C40.765 30.9021 40.9845 31.7505 40.9845 31.7505C40.9845 31.7505 40.0272 29.9242 40.0363 27.2492C40.0424 25.3393 40.3337 23.6078 41.19 21.8993C41.9436 20.3969 43.0637 19.495 44.0579 19.389C45.0858 19.2797 45.8975 19.7905 46.5257 20.3433C47.1843 20.9245 47.8505 22.1936 47.8505 22.1936L49.4001 19H49.4041Z" fill="white"/>
<path d="M49.5989 34.8023C49.5989 34.8023 48.9023 36.0873 48.4683 36.5821C48.0341 37.0776 47.2573 37.9492 46.2982 38.3855C45.3391 38.8214 44.8361 38.903 43.8878 38.8097C42.9407 38.7159 42.0605 38.1501 41.7521 37.9141C41.4438 37.678 40.6553 36.9834 40.2094 36.3349C39.7634 35.6865 39.0669 34.3909 39.0669 34.3909C39.0669 34.3909 39.4548 35.6898 39.6984 36.2412C39.8379 36.5588 40.2674 37.5292 40.8776 38.3738C41.4467 39.1615 42.5515 40.5181 44.2306 40.8244C45.9096 41.1312 47.0633 40.353 47.3491 40.1649C47.6342 39.9769 48.2361 39.4567 48.6174 39.0356C49.0149 38.5976 49.3916 38.0377 49.5994 37.702C49.7521 37.4565 50 36.9593 50 36.9593L49.5992 34.8039L49.5989 34.8023Z" fill="white"/>
</svg>
