<svg width="621" height="120" viewBox="0 0 621 120" fill="none" xmlns="http://www.w3.org/2000/svg">
<path d="M24.304 43.208C24.304 41.6293 24.4107 39.88 24.624 37.96C24.88 35.9973 25.2427 34.0347 25.712 32.072C26.224 30.0667 26.8853 28.1253 27.696 26.248C28.5493 24.328 29.552 22.6427 30.704 21.192C31.8987 19.7413 33.2853 18.5893 34.864 17.736C36.4853 16.84 38.32 16.4133 40.368 16.456C42.3307 16.4987 44.0587 16.968 45.552 17.864C47.088 18.7173 48.432 19.8693 49.584 21.32C50.7787 22.728 51.7813 24.3493 52.592 26.184C53.4453 27.976 54.128 29.832 54.64 31.752C55.152 33.672 55.5147 35.5707 55.728 37.448C55.984 39.2827 56.112 40.9467 56.112 42.44C56.112 44.0187 56.0053 45.768 55.792 47.688C55.5787 49.608 55.2373 51.5493 54.768 53.512C54.2987 55.4747 53.6587 57.3947 52.848 59.272C52.0373 61.1067 51.056 62.7493 49.904 64.2C48.752 65.6507 47.3867 66.824 45.808 67.72C44.2293 68.5733 42.416 69 40.368 69C38.32 69 36.4853 68.5947 34.864 67.784C33.2853 66.9307 31.8987 65.8213 30.704 64.456C29.552 63.0907 28.5493 61.512 27.696 59.72C26.8853 57.928 26.224 56.0933 25.712 54.216C25.2427 52.296 24.88 50.3973 24.624 48.52C24.4107 46.6 24.304 44.8293 24.304 43.208ZM29.232 44.232C29.232 45.512 29.2533 47.0053 29.296 48.712C29.3387 50.4187 29.4667 52.1893 29.68 54.024C29.8933 55.816 30.2133 57.5867 30.64 59.336C31.1093 61.0853 31.7493 62.6427 32.56 64.008C33.3707 65.3733 34.416 66.4827 35.696 67.336C36.976 68.1467 38.5333 68.5307 40.368 68.488C42.288 68.4453 43.888 67.912 45.168 66.888C46.448 65.864 47.4933 64.5413 48.304 62.92C49.1147 61.2987 49.712 59.4853 50.096 57.48C50.5227 55.4747 50.8 53.448 50.928 51.4C51.0987 49.352 51.184 47.3893 51.184 45.512C51.184 43.6347 51.184 42.0347 51.184 40.712C51.184 39.4747 51.1413 38.0453 51.056 36.424C51.0133 34.76 50.8853 33.0533 50.672 31.304C50.4587 29.5547 50.1173 27.848 49.648 26.184C49.1787 24.4773 48.5387 22.9413 47.728 21.576C46.96 20.2107 45.9573 19.1227 44.72 18.312C43.5253 17.4587 42.0747 17.0107 40.368 16.968C38.4907 16.9253 36.912 17.3947 35.632 18.376C34.352 19.3147 33.2853 20.5733 32.432 22.152C31.6213 23.688 30.9813 25.4587 30.512 27.464C30.0853 29.4693 29.7653 31.496 29.552 33.544C29.3813 35.5493 29.2747 37.512 29.232 39.432C29.232 41.3093 29.232 42.9093 29.232 44.232ZM65.3975 16.648V60.168C65.3975 61.2347 65.3975 62.1307 65.3975 62.856C65.4402 63.5387 65.4828 64.1147 65.5255 64.584C65.5682 65.0533 65.6108 65.416 65.6535 65.672C65.7388 65.928 65.8028 66.1413 65.8455 66.312C66.0162 67.0373 66.4855 67.6773 67.2535 68.232H59.7655C60.3628 67.8053 60.8108 67.2507 61.1095 66.568C61.1948 66.3973 61.2588 66.184 61.3015 65.928C61.3868 65.672 61.4508 65.3093 61.4935 64.84C61.5362 64.3707 61.5575 63.7733 61.5575 63.048C61.6002 62.28 61.6215 61.32 61.6215 60.168V31.304C61.6215 27.2933 61.4935 24.6907 61.2375 23.496C61.0242 22.6427 60.6828 21.9387 60.2135 21.384C59.7442 20.7867 59.0828 20.3813 58.2295 20.168L65.3975 16.648Z" fill="#AAAAAA"/>
<path d="M369.304 43.208C369.304 41.6293 369.411 39.88 369.624 37.96C369.88 35.9973 370.243 34.0347 370.712 32.072C371.224 30.0667 371.885 28.1253 372.696 26.248C373.549 24.328 374.552 22.6427 375.704 21.192C376.899 19.7413 378.285 18.5893 379.864 17.736C381.485 16.84 383.32 16.4133 385.368 16.456C387.331 16.4987 389.059 16.968 390.552 17.864C392.088 18.7173 393.432 19.8693 394.584 21.32C395.779 22.728 396.781 24.3493 397.592 26.184C398.445 27.976 399.128 29.832 399.64 31.752C400.152 33.672 400.515 35.5707 400.728 37.448C400.984 39.2827 401.112 40.9467 401.112 42.44C401.112 44.0187 401.005 45.768 400.792 47.688C400.579 49.608 400.237 51.5493 399.768 53.512C399.299 55.4747 398.659 57.3947 397.848 59.272C397.037 61.1067 396.056 62.7493 394.904 64.2C393.752 65.6507 392.387 66.824 390.808 67.72C389.229 68.5733 387.416 69 385.368 69C383.32 69 381.485 68.5947 379.864 67.784C378.285 66.9307 376.899 65.8213 375.704 64.456C374.552 63.0907 373.549 61.512 372.696 59.72C371.885 57.928 371.224 56.0933 370.712 54.216C370.243 52.296 369.88 50.3973 369.624 48.52C369.411 46.6 369.304 44.8293 369.304 43.208ZM374.232 44.232C374.232 45.512 374.253 47.0053 374.296 48.712C374.339 50.4187 374.467 52.1893 374.68 54.024C374.893 55.816 375.213 57.5867 375.64 59.336C376.109 61.0853 376.749 62.6427 377.56 64.008C378.371 65.3733 379.416 66.4827 380.696 67.336C381.976 68.1467 383.533 68.5307 385.368 68.488C387.288 68.4453 388.888 67.912 390.168 66.888C391.448 65.864 392.493 64.5413 393.304 62.92C394.115 61.2987 394.712 59.4853 395.096 57.48C395.523 55.4747 395.8 53.448 395.928 51.4C396.099 49.352 396.184 47.3893 396.184 45.512C396.184 43.6347 396.184 42.0347 396.184 40.712C396.184 39.4747 396.141 38.0453 396.056 36.424C396.013 34.76 395.885 33.0533 395.672 31.304C395.459 29.5547 395.117 27.848 394.648 26.184C394.179 24.4773 393.539 22.9413 392.728 21.576C391.96 20.2107 390.957 19.1227 389.72 18.312C388.525 17.4587 387.075 17.0107 385.368 16.968C383.491 16.9253 381.912 17.3947 380.632 18.376C379.352 19.3147 378.285 20.5733 377.432 22.152C376.621 23.688 375.981 25.4587 375.512 27.464C375.085 29.4693 374.765 31.496 374.552 33.544C374.381 35.5493 374.275 37.512 374.232 39.432C374.232 41.3093 374.232 42.9093 374.232 44.232ZM403.45 66.376C403.45 66.248 403.471 66.12 403.514 65.992C403.599 65.8213 403.749 65.6293 403.962 65.416C404.303 65.0747 404.794 64.904 405.434 64.904C405.647 64.904 405.861 64.9253 406.074 64.968C406.33 65.0107 406.565 65.0747 406.778 65.16C407.589 65.416 408.357 65.736 409.082 66.12C409.807 66.504 410.511 66.8667 411.194 67.208C411.919 67.5493 412.666 67.848 413.434 68.104C414.202 68.3173 415.055 68.3813 415.994 68.296C418.426 68.0827 420.538 67.464 422.33 66.44C424.165 65.3733 425.573 64.0293 426.554 62.408C427.535 60.744 428.047 58.8667 428.09 56.776C428.175 54.6427 427.663 52.4027 426.554 50.056C425.53 47.8373 424.058 46.088 422.138 44.808C420.218 43.4853 418.085 42.568 415.738 42.056C416.847 41.5867 417.978 40.968 419.13 40.2C420.282 39.3893 421.221 38.5147 421.946 37.576C422.799 36.4667 423.461 35.2293 423.93 33.864C424.399 32.4987 424.634 31.112 424.634 29.704C424.677 28.2533 424.463 26.8453 423.994 25.48C423.525 24.1147 422.778 22.92 421.754 21.896C419.791 19.976 417.338 19.016 414.394 19.016C411.834 19.016 409.487 19.784 407.354 21.32C408.762 19.656 410.213 18.44 411.706 17.672C413.199 16.8613 415.098 16.456 417.402 16.456C421.199 16.456 424.122 17.6933 426.17 20.168C427.407 21.6613 428.09 23.1973 428.218 24.776C428.346 26.312 428.133 27.848 427.578 29.384C427.066 30.8773 426.319 32.3493 425.338 33.8C424.357 35.2507 423.354 36.616 422.33 37.896C422.159 38.1093 422.01 38.3013 421.882 38.472C421.754 38.6427 421.583 38.8133 421.37 38.984C424.399 40.2213 426.767 41.864 428.474 43.912C430.223 45.9173 431.098 48.584 431.098 51.912C431.098 54.1733 430.735 56.2853 430.01 58.248C429.285 60.2107 428.261 61.96 426.938 63.496C425.615 64.9893 424.037 66.2053 422.202 67.144C420.41 68.04 418.426 68.5947 416.25 68.808C415.482 68.8933 414.693 68.9787 413.882 69.064C413.071 69.1493 412.239 69.192 411.386 69.192C411.045 69.192 410.426 69.1707 409.53 69.128C408.677 69.0853 407.802 68.9787 406.906 68.808C406.01 68.5947 405.199 68.3173 404.474 67.976C403.791 67.592 403.45 67.0587 403.45 66.376Z" fill="#AAAAAA"/>
<path d="M550.304 43.208C550.304 41.6293 550.411 39.88 550.624 37.96C550.88 35.9973 551.243 34.0347 551.712 32.072C552.224 30.0667 552.885 28.1253 553.696 26.248C554.549 24.328 555.552 22.6427 556.704 21.192C557.899 19.7413 559.285 18.5893 560.864 17.736C562.485 16.84 564.32 16.4133 566.368 16.456C568.331 16.4987 570.059 16.968 571.552 17.864C573.088 18.7173 574.432 19.8693 575.584 21.32C576.779 22.728 577.781 24.3493 578.592 26.184C579.445 27.976 580.128 29.832 580.64 31.752C581.152 33.672 581.515 35.5707 581.728 37.448C581.984 39.2827 582.112 40.9467 582.112 42.44C582.112 44.0187 582.005 45.768 581.792 47.688C581.579 49.608 581.237 51.5493 580.768 53.512C580.299 55.4747 579.659 57.3947 578.848 59.272C578.037 61.1067 577.056 62.7493 575.904 64.2C574.752 65.6507 573.387 66.824 571.808 67.72C570.229 68.5733 568.416 69 566.368 69C564.32 69 562.485 68.5947 560.864 67.784C559.285 66.9307 557.899 65.8213 556.704 64.456C555.552 63.0907 554.549 61.512 553.696 59.72C552.885 57.928 552.224 56.0933 551.712 54.216C551.243 52.296 550.88 50.3973 550.624 48.52C550.411 46.6 550.304 44.8293 550.304 43.208ZM555.232 44.232C555.232 45.512 555.253 47.0053 555.296 48.712C555.339 50.4187 555.467 52.1893 555.68 54.024C555.893 55.816 556.213 57.5867 556.64 59.336C557.109 61.0853 557.749 62.6427 558.56 64.008C559.371 65.3733 560.416 66.4827 561.696 67.336C562.976 68.1467 564.533 68.5307 566.368 68.488C568.288 68.4453 569.888 67.912 571.168 66.888C572.448 65.864 573.493 64.5413 574.304 62.92C575.115 61.2987 575.712 59.4853 576.096 57.48C576.523 55.4747 576.8 53.448 576.928 51.4C577.099 49.352 577.184 47.3893 577.184 45.512C577.184 43.6347 577.184 42.0347 577.184 40.712C577.184 39.4747 577.141 38.0453 577.056 36.424C577.013 34.76 576.885 33.0533 576.672 31.304C576.459 29.5547 576.117 27.848 575.648 26.184C575.179 24.4773 574.539 22.9413 573.728 21.576C572.96 20.2107 571.957 19.1227 570.72 18.312C569.525 17.4587 568.075 17.0107 566.368 16.968C564.491 16.9253 562.912 17.3947 561.632 18.376C560.352 19.3147 559.285 20.5733 558.432 22.152C557.621 23.688 556.981 25.4587 556.512 27.464C556.085 29.4693 555.765 31.496 555.552 33.544C555.381 35.5493 555.275 37.512 555.232 39.432C555.232 41.3093 555.232 42.9093 555.232 44.232ZM585.325 51.144L609.645 16.456H611.821V51.336H618.989V54.088H611.821V68.232H608.109V54.088L585.325 54.152V51.144ZM608.109 51.336V19.4L585.837 51.336H608.109Z" fill="#AAAAAA"/>
<path d="M186.304 43.208C186.304 41.6293 186.411 39.88 186.624 37.96C186.88 35.9973 187.243 34.0347 187.712 32.072C188.224 30.0667 188.885 28.1253 189.696 26.248C190.549 24.328 191.552 22.6427 192.704 21.192C193.899 19.7413 195.285 18.5893 196.864 17.736C198.485 16.84 200.32 16.4133 202.368 16.456C204.331 16.4987 206.059 16.968 207.552 17.864C209.088 18.7173 210.432 19.8693 211.584 21.32C212.779 22.728 213.781 24.3493 214.592 26.184C215.445 27.976 216.128 29.832 216.64 31.752C217.152 33.672 217.515 35.5707 217.728 37.448C217.984 39.2827 218.112 40.9467 218.112 42.44C218.112 44.0187 218.005 45.768 217.792 47.688C217.579 49.608 217.237 51.5493 216.768 53.512C216.299 55.4747 215.659 57.3947 214.848 59.272C214.037 61.1067 213.056 62.7493 211.904 64.2C210.752 65.6507 209.387 66.824 207.808 67.72C206.229 68.5733 204.416 69 202.368 69C200.32 69 198.485 68.5947 196.864 67.784C195.285 66.9307 193.899 65.8213 192.704 64.456C191.552 63.0907 190.549 61.512 189.696 59.72C188.885 57.928 188.224 56.0933 187.712 54.216C187.243 52.296 186.88 50.3973 186.624 48.52C186.411 46.6 186.304 44.8293 186.304 43.208ZM191.232 44.232C191.232 45.512 191.253 47.0053 191.296 48.712C191.339 50.4187 191.467 52.1893 191.68 54.024C191.893 55.816 192.213 57.5867 192.64 59.336C193.109 61.0853 193.749 62.6427 194.56 64.008C195.371 65.3733 196.416 66.4827 197.696 67.336C198.976 68.1467 200.533 68.5307 202.368 68.488C204.288 68.4453 205.888 67.912 207.168 66.888C208.448 65.864 209.493 64.5413 210.304 62.92C211.115 61.2987 211.712 59.4853 212.096 57.48C212.523 55.4747 212.8 53.448 212.928 51.4C213.099 49.352 213.184 47.3893 213.184 45.512C213.184 43.6347 213.184 42.0347 213.184 40.712C213.184 39.4747 213.141 38.0453 213.056 36.424C213.013 34.76 212.885 33.0533 212.672 31.304C212.459 29.5547 212.117 27.848 211.648 26.184C211.179 24.4773 210.539 22.9413 209.728 21.576C208.96 20.2107 207.957 19.1227 206.72 18.312C205.525 17.4587 204.075 17.0107 202.368 16.968C200.491 16.9253 198.912 17.3947 197.632 18.376C196.352 19.3147 195.285 20.5733 194.432 22.152C193.621 23.688 192.981 25.4587 192.512 27.464C192.085 29.4693 191.765 31.496 191.552 33.544C191.381 35.5493 191.275 37.512 191.232 39.432C191.232 41.3093 191.232 42.9093 191.232 44.232ZM220.513 68.232C222.987 65.9707 225.419 63.5173 227.809 60.872C230.241 58.2267 232.545 55.624 234.721 53.064C236.043 51.5707 237.323 50.0773 238.561 48.584C239.841 47.048 240.971 45.4693 241.953 43.848C242.934 42.2267 243.723 40.4987 244.321 38.664C244.918 36.8293 245.217 34.8453 245.217 32.712C245.217 30.9627 244.918 29.2987 244.321 27.72C243.723 26.1413 242.891 24.7547 241.825 23.56C240.758 22.3653 239.478 21.4267 237.985 20.744C236.491 20.0187 234.827 19.656 232.993 19.656C231.115 19.656 229.302 20.0827 227.553 20.936C225.803 21.7467 224.289 22.92 223.009 24.456C224.118 21.896 225.739 19.912 227.873 18.504C230.006 17.096 232.481 16.392 235.297 16.392C237.089 16.392 238.817 16.712 240.481 17.352C242.145 17.9493 243.617 18.8027 244.897 19.912C246.219 21.0213 247.265 22.3653 248.033 23.944C248.801 25.48 249.185 27.1867 249.185 29.064C249.185 31.3253 248.715 33.5653 247.777 35.784C246.838 38.0027 245.665 40.1573 244.257 42.248C242.849 44.296 241.313 46.2587 239.649 48.136C238.027 50.0133 236.534 51.7627 235.169 53.384C233.334 55.5173 231.478 57.6293 229.601 59.72C227.723 61.8107 226.059 63.624 224.609 65.16H240.929C242.422 65.16 243.681 65.1173 244.705 65.032C245.729 64.9467 246.539 64.8613 247.137 64.776C248.502 64.5627 249.718 64.0507 250.785 63.24C250.827 63.1973 250.849 63.176 250.849 63.176C250.891 63.176 250.934 63.1547 250.977 63.112L249.121 68.232H220.513Z" fill="black"/>
<path d="M179.576 105.312C179.504 109.536 183.08 111.408 186.872 111.408C191.552 111.408 194 109.056 194 105.912C194 102.048 190.184 101.208 188.912 100.92C184.616 99.84 183.8 99.648 183.8 98.328C183.8 96.888 185.192 96.384 186.392 96.384C188.216 96.384 189.656 96.936 189.776 98.976H193.424C193.424 95.016 190.136 93.456 186.56 93.456C183.464 93.456 180.152 95.112 180.152 98.64C180.152 101.808 182.72 102.888 185.264 103.512C187.76 104.208 190.352 104.472 190.352 106.344C190.352 108.096 188.336 108.48 187.016 108.48C185 108.48 183.224 107.592 183.224 105.312H179.576ZM195.882 111H199.29V104.496C199.29 101.976 200.082 100.944 201.93 100.944C203.538 100.944 204.114 101.952 204.114 103.992V111H207.522V103.368C207.522 100.296 206.61 98.256 202.986 98.256C201.714 98.256 200.226 98.904 199.362 100.32H199.29V93.864H195.882V111ZM213.613 93.864H210.205V96.672H213.613V93.864ZM210.205 111H213.613V98.592H210.205V111ZM222.56 108.768C220.352 108.768 219.584 106.848 219.584 104.832C219.584 102.816 220.304 100.824 222.536 100.824C224.72 100.824 225.512 102.84 225.512 104.832C225.512 106.848 224.792 108.768 222.56 108.768ZM216.296 115.368H219.704V109.464H219.752C220.592 110.688 221.96 111.336 223.472 111.336C227.12 111.336 228.92 108.24 228.92 104.928C228.92 101.4 227.168 98.256 223.28 98.256C221.744 98.256 220.424 98.832 219.584 100.176H219.536V98.592H216.296V115.368ZM237.232 108.768C235.024 108.768 234.256 106.848 234.256 104.832C234.256 102.816 234.976 100.824 237.208 100.824C239.392 100.824 240.184 102.84 240.184 104.832C240.184 106.848 239.464 108.768 237.232 108.768ZM230.968 115.368H234.376V109.464H234.424C235.264 110.688 236.632 111.336 238.144 111.336C241.792 111.336 243.592 108.24 243.592 104.928C243.592 101.4 241.84 98.256 237.952 98.256C236.416 98.256 235.096 98.832 234.256 100.176H234.208V98.592H230.968V115.368ZM249.144 93.864H245.736V96.672H249.144V93.864ZM245.736 111H249.144V98.592H245.736V111ZM251.827 111H255.235V104.496C255.235 101.976 256.027 100.944 257.875 100.944C259.483 100.944 260.059 101.952 260.059 103.992V111H263.467V103.368C263.467 100.296 262.555 98.256 258.931 98.256C257.491 98.256 256.003 98.904 255.139 100.32H255.067V98.592H251.827V111ZM271.838 108.072C269.726 108.072 269.078 106.128 269.078 104.352C269.078 102.504 269.918 100.824 271.838 100.824C274.046 100.824 274.742 102.624 274.742 104.64C274.742 106.416 273.782 108.072 271.838 108.072ZM277.982 98.592H274.742V100.248H274.694C273.854 98.808 272.63 98.256 270.998 98.256C267.542 98.256 265.67 101.184 265.67 104.4C265.67 107.808 267.23 110.64 270.974 110.64C272.486 110.64 273.95 110.04 274.694 108.72H274.742V110.352C274.766 112.152 273.902 113.424 272.006 113.424C270.782 113.424 269.774 112.992 269.462 111.72H266.078C266.27 114.528 269.102 115.704 271.55 115.704C277.238 115.704 277.982 112.248 277.982 110.208V98.592Z" fill="black"/>
<path d="M8.584 95.496L11.896 104.28H5.152L8.584 95.496ZM0.832 111H2.584L4.648 105.672H12.448L14.536 111H16.288L9.568 93.864H7.744L0.832 111ZM27.8052 102.504C27.4452 99.648 25.4532 98.256 22.7892 98.256C19.0212 98.256 16.9332 101.256 16.9332 104.808C16.9332 108.36 19.0212 111.36 22.7892 111.36C25.5732 111.36 27.4932 109.56 27.9012 106.56H26.3892C26.1972 108.6 24.6372 110.088 22.7892 110.088C19.9092 110.088 18.4452 107.424 18.4452 104.808C18.4452 102.192 19.9092 99.528 22.7892 99.528C24.7812 99.528 25.8852 100.656 26.2932 102.504H27.8052ZM40.2505 102.504C39.8905 99.648 37.8985 98.256 35.2345 98.256C31.4665 98.256 29.3785 101.256 29.3785 104.808C29.3785 108.36 31.4665 111.36 35.2345 111.36C38.0185 111.36 39.9385 109.56 40.3465 106.56H38.8345C38.6425 108.6 37.0825 110.088 35.2345 110.088C32.3545 110.088 30.8905 107.424 30.8905 104.808C30.8905 102.192 32.3545 99.528 35.2345 99.528C37.2265 99.528 38.3305 100.656 38.7385 102.504H40.2505ZM47.6798 99.528C50.5598 99.528 52.0238 102.192 52.0238 104.808C52.0238 107.424 50.5598 110.088 47.6798 110.088C44.7998 110.088 43.3358 107.424 43.3358 104.808C43.3358 102.192 44.7998 99.528 47.6798 99.528ZM47.6798 98.256C43.9118 98.256 41.8238 101.256 41.8238 104.808C41.8238 108.36 43.9118 111.36 47.6798 111.36C51.4478 111.36 53.5358 108.36 53.5358 104.808C53.5358 101.256 51.4478 98.256 47.6798 98.256ZM65.8158 98.616H64.3038V105.12C64.3038 107.64 63.1758 110.088 60.5838 110.088C58.1838 110.088 57.3438 108.912 57.2718 106.68V98.616H55.7598V106.656C55.7598 109.56 56.9598 111.36 60.1038 111.36C61.9518 111.36 63.5838 110.424 64.3758 108.768H64.4238V111H65.8158V98.616ZM68.6504 111H70.1624V103.776C70.2344 101.352 71.6264 99.528 74.0504 99.528C76.4984 99.528 77.1944 101.16 77.1944 103.272V111H78.7064V103.032C78.7064 100.08 77.6504 98.256 74.1704 98.256C72.4184 98.256 70.7864 99.264 70.2104 100.752H70.1624V98.616H68.6504V111ZM83.965 94.896H82.453V98.616H80.293V99.888H82.453V108.36C82.429 110.472 83.125 111.144 85.141 111.144C85.597 111.144 86.029 111.096 86.485 111.096V109.8C86.053 109.848 85.621 109.872 85.189 109.872C84.109 109.8 83.965 109.224 83.965 108.24V99.888H86.485V98.616H83.965V94.896Z" fill="#AAAAAA"/>
<path d="M370.36 95.256H375.976C378.256 95.256 379.792 96.384 379.792 98.76C379.792 101.136 378.256 102.264 375.976 102.264H370.36V95.256ZM368.728 111H370.36V103.656H376.336C379.408 103.656 381.424 101.856 381.424 98.76C381.424 95.664 379.408 93.864 376.336 93.864H368.728V111ZM384.925 102.408C384.997 100.392 386.341 99.528 388.237 99.528C390.037 99.528 391.477 100.032 391.477 102.072C391.477 103.416 390.781 103.632 389.533 103.752C386.269 104.136 382.885 104.28 382.885 107.736C382.885 110.232 384.733 111.36 387.037 111.36C389.437 111.36 390.469 110.448 391.549 108.84H391.597C391.597 110.112 391.837 111 393.373 111C393.781 111 393.997 110.976 394.357 110.904V109.632C394.189 109.704 394.045 109.728 393.877 109.728C393.277 109.728 392.989 109.416 392.989 108.816V102.24C392.989 98.904 390.613 98.256 388.429 98.256C385.573 98.256 383.581 99.504 383.413 102.408H384.925ZM391.477 106.2C391.477 108.624 389.485 110.088 387.157 110.088C385.717 110.088 384.397 109.152 384.397 107.64C384.397 105.24 387.589 105.24 390.157 104.784C390.565 104.712 391.237 104.592 391.429 104.232H391.477V106.2ZM399.555 110.952L399.027 112.368C398.523 113.52 398.211 114.312 396.867 114.312C396.507 114.312 396.195 114.264 395.835 114.192V115.464C396.099 115.56 396.387 115.56 396.987 115.584C398.883 115.584 399.363 114.984 400.251 112.896L405.627 98.616H404.115L400.299 109.176L396.219 98.616H394.611L399.555 110.952ZM407.112 111H408.624V104.088C408.624 101.496 409.728 99.528 412.32 99.528C414.264 99.528 414.912 100.92 414.912 102.6V111H416.424V103.992C416.424 101.688 417.168 99.528 419.784 99.528C421.968 99.528 422.712 100.632 422.712 102.672V111H424.224V102.6C424.224 99.696 422.856 98.256 420.12 98.256C418.488 98.256 416.928 99.048 416.184 100.68C415.728 99.048 414.264 98.256 412.632 98.256C410.64 98.256 409.368 99.192 408.576 100.704H408.504V98.616H407.112V111ZM427.992 103.944C428.256 101.688 429.576 99.528 432.072 99.528C434.496 99.528 435.936 101.664 436.008 103.944H427.992ZM437.52 105.216C437.64 101.736 436.032 98.256 432.072 98.256C428.136 98.256 426.48 101.544 426.48 104.808C426.48 108.336 428.136 111.36 432.072 111.36C435.216 111.36 436.824 109.728 437.472 106.92H435.96C435.48 108.816 434.28 110.088 432.072 110.088C429.192 110.088 427.992 107.424 427.992 105.216H437.52ZM439.525 111H441.037V103.776C441.109 101.352 442.501 99.528 444.925 99.528C447.373 99.528 448.069 101.16 448.069 103.272V111H449.581V103.032C449.581 100.08 448.525 98.256 445.045 98.256C443.293 98.256 441.661 99.264 441.085 100.752H441.037V98.616H439.525V111ZM454.84 94.896H453.328V98.616H451.168V99.888H453.328V108.36C453.304 110.472 454 111.144 456.016 111.144C456.472 111.144 456.904 111.096 457.36 111.096V109.8C456.928 109.848 456.496 109.872 456.064 109.872C454.984 109.8 454.84 109.224 454.84 108.24V99.888H457.36V98.616H454.84V94.896Z" fill="black"/>
<path d="M549.36 95.256H555.456C557.928 95.256 559.152 96.552 559.152 98.664C559.152 100.752 557.448 102 555.456 102H549.36V95.256ZM547.728 111H549.36V103.392H555.552C558.624 103.272 558.864 105.936 558.984 108.336C559.056 109.056 559.056 110.352 559.44 111H561.24C560.52 110.16 560.52 107.784 560.448 106.608C560.328 104.544 559.68 103.056 557.448 102.744V102.696C559.656 102.24 560.784 100.512 560.784 98.328C560.784 95.232 558.384 93.864 555.576 93.864H547.728V111ZM564.336 103.944C564.6 101.688 565.92 99.528 568.416 99.528C570.84 99.528 572.28 101.664 572.352 103.944H564.336ZM573.864 105.216C573.984 101.736 572.376 98.256 568.416 98.256C564.48 98.256 562.824 101.544 562.824 104.808C562.824 108.336 564.48 111.36 568.416 111.36C571.56 111.36 573.168 109.728 573.816 106.92H572.304C571.824 108.816 570.624 110.088 568.416 110.088C565.536 110.088 564.336 107.424 564.336 105.216H573.864ZM579.277 111H580.885L585.517 98.616H583.957L580.117 109.488H580.069L576.181 98.616H574.501L579.277 111ZM587.027 96.288H588.539V93.864H587.027V96.288ZM587.027 111H588.539V98.616H587.027V111ZM592.32 103.944C592.584 101.688 593.904 99.528 596.4 99.528C598.824 99.528 600.264 101.664 600.336 103.944H592.32ZM601.848 105.216C601.968 101.736 600.36 98.256 596.4 98.256C592.464 98.256 590.808 101.544 590.808 104.808C590.808 108.336 592.464 111.36 596.4 111.36C599.544 111.36 601.152 109.728 601.8 106.92H600.288C599.808 108.816 598.608 110.088 596.4 110.088C593.52 110.088 592.32 107.424 592.32 105.216H601.848ZM606.614 111H608.27L611.294 100.584H611.342L614.39 111H616.046L620.03 98.616H618.422L615.254 109.224H615.206L612.182 98.616H610.478L607.454 109.224H607.406L604.238 98.616H602.63L606.614 111Z" fill="black"/>
<path d="M70 46.5H182.5" stroke="black"/>
<path d="M253 46H365.5" stroke="black"/>
<path d="M434 46H546.5" stroke="black"/>
</svg>
