<svg width="1172" height="93" viewBox="0 0 1172 93" fill="none" xmlns="http://www.w3.org/2000/svg">
<path d="M1.44 84H4.176V78.096C4.176 75.336 5.688 73.848 7.536 73.848C7.92 73.848 8.328 73.896 8.712 73.968V71.328C8.448 71.304 8.328 71.256 7.68 71.256C6.024 71.256 4.368 72.672 4.056 73.992H4.008V71.592H1.44V84ZM20.7735 71.592H18.0375V78.792C18.0375 80.712 17.2695 82.176 14.9895 82.176C13.4775 82.176 12.6135 81.384 12.6135 79.2V71.592H9.8775V79.464C9.8775 82.728 11.2455 84.336 14.5095 84.336C15.8775 84.336 17.3655 83.52 18.0375 82.272H18.0855V84H20.7735V71.592ZM23.6588 84H26.3948V76.68C26.3948 74.856 27.5708 73.416 29.3948 73.416C31.0268 73.416 31.7468 74.256 31.8188 76.2V84H34.5547V75.48C34.5547 72.672 32.8748 71.256 30.1628 71.256C28.5308 71.256 27.1388 72.096 26.2988 73.464L26.2508 73.416V71.592H23.6588V84ZM36.768 80.016C36.84 82.944 39.12 84.336 42.264 84.336C44.832 84.336 47.808 83.256 47.808 80.304C47.808 77.856 45.792 77.136 43.8 76.68C41.784 76.248 39.768 76.032 39.768 74.688C39.768 73.608 41.232 73.416 42.024 73.416C43.248 73.416 44.28 73.752 44.544 75.072H47.4C47.088 72.288 44.76 71.256 42.216 71.256C39.96 71.256 37.032 72.096 37.032 74.808C37.032 77.328 39 78.048 41.016 78.48C43.008 78.936 45 79.104 45.072 80.544C45.144 81.96 43.368 82.176 42.312 82.176C40.848 82.176 39.672 81.624 39.504 80.016H36.768ZM55.893 80.016C55.965 82.944 58.245 84.336 61.389 84.336C63.957 84.336 66.933 83.256 66.933 80.304C66.933 77.856 64.917 77.136 62.925 76.68C60.909 76.248 58.893 76.032 58.893 74.688C58.893 73.608 60.357 73.416 61.149 73.416C62.373 73.416 63.405 73.752 63.669 75.072H66.525C66.213 72.288 63.885 71.256 61.341 71.256C59.085 71.256 56.157 72.096 56.157 74.808C56.157 77.328 58.125 78.048 60.141 78.48C62.133 78.936 64.125 79.104 64.197 80.544C64.269 81.96 62.493 82.176 61.437 82.176C59.973 82.176 58.797 81.624 58.629 80.016H55.893ZM69.0103 84H71.7463V76.632C71.7463 74.592 73.0423 73.416 74.4583 73.416C76.1143 73.416 76.6423 74.304 76.6423 76.032V84H79.3783V76.728C79.3783 74.616 80.1703 73.416 82.0183 73.416C84.1543 73.416 84.2743 74.76 84.2743 76.752V84H87.0103V75.432C87.0103 72.432 85.4743 71.256 82.8583 71.256C81.0343 71.256 79.9063 72.048 78.9703 73.32C78.4183 71.904 77.0023 71.256 75.4903 71.256C73.4983 71.256 72.5143 72.096 71.6743 73.32H71.6023V71.592H69.0103V84ZM100.285 74.856C100.285 72.24 97.7411 71.256 95.3171 71.256C92.5571 71.256 89.8691 72.192 89.6771 75.384H92.4131C92.5331 74.04 93.6131 73.416 95.1491 73.416C96.2291 73.416 97.7171 73.656 97.7171 75.096C97.7171 76.728 95.9891 76.464 93.9971 76.848C91.6931 77.112 89.2211 77.616 89.2211 80.712C89.2211 83.136 91.2371 84.336 93.4691 84.336C94.9331 84.336 96.6851 83.88 97.7651 82.824C97.9811 83.952 98.7491 84.336 99.8771 84.336C100.333 84.336 101.197 84.168 101.605 84.024V82.128C101.461 82.152 101.341 82.176 101.221 82.176H100.933C100.429 82.176 100.285 81.912 100.285 81.24V74.856ZM97.5491 79.824C97.5491 81.552 95.6771 82.176 94.4771 82.176C93.5171 82.176 91.9571 81.84 91.9571 80.592C91.9571 79.152 93.0131 78.72 94.1891 78.528C95.4131 78.312 96.7091 78.336 97.5491 77.784V79.824ZM103.301 84H106.037V66.864H103.301V84ZM109.09 84H111.826V66.864H109.09V84Z" fill="black"/>
<path d="M512.192 73.632H514.256V80.952C514.328 83.016 514.808 84.12 517.688 84.12C518.288 84.12 518.864 84.048 519.464 83.976V81.864C519.08 81.96 518.696 81.96 518.312 81.96C517.088 81.96 516.992 81.384 516.992 80.256V73.632H519.464V71.592H516.992V67.872H514.256V71.592H512.192V73.632ZM521.432 84H524.168V78.096C524.168 75.336 525.68 73.848 527.528 73.848C527.912 73.848 528.32 73.896 528.704 73.968V71.328C528.44 71.304 528.32 71.256 527.672 71.256C526.016 71.256 524.36 72.672 524.048 73.992H524V71.592H521.432V84ZM540.766 71.592H538.03V78.792C538.03 80.712 537.262 82.176 534.982 82.176C533.47 82.176 532.606 81.384 532.606 79.2V71.592H529.87V79.464C529.87 82.728 531.238 84.336 534.502 84.336C535.87 84.336 537.358 83.52 538.03 82.272H538.078V84H540.766V71.592ZM545.787 76.704C545.859 74.856 547.155 73.416 549.051 73.416C550.923 73.416 552.051 74.976 552.171 76.704H545.787ZM554.907 78.504C555.363 74.784 552.963 71.256 549.051 71.256C545.355 71.256 543.051 74.28 543.051 77.808C543.051 81.648 545.211 84.336 549.123 84.336C551.811 84.336 554.163 82.824 554.739 80.112H552.147C551.667 81.48 550.731 82.176 549.123 82.176C546.843 82.176 545.787 80.448 545.787 78.504H554.907ZM562.419 73.632H564.483V80.952C564.555 83.016 565.035 84.12 567.915 84.12C568.515 84.12 569.091 84.048 569.691 83.976V81.864C569.307 81.96 568.923 81.96 568.539 81.96C567.315 81.96 567.219 81.384 567.219 80.256V73.632H569.691V71.592H567.219V67.872H564.483V71.592H562.419V73.632ZM577.347 84.336C581.307 84.336 583.611 81.6 583.611 77.784C583.611 74.016 581.307 71.256 577.347 71.256C573.387 71.256 571.083 74.016 571.083 77.784C571.083 81.6 573.387 84.336 577.347 84.336ZM577.347 82.176C574.899 82.176 573.819 79.944 573.819 77.784C573.819 75.648 574.899 73.416 577.347 73.416C579.795 73.416 580.875 75.648 580.875 77.784C580.875 79.944 579.795 82.176 577.347 82.176ZM591.893 80.016C591.965 82.944 594.245 84.336 597.389 84.336C599.957 84.336 602.933 83.256 602.933 80.304C602.933 77.856 600.917 77.136 598.925 76.68C596.909 76.248 594.893 76.032 594.893 74.688C594.893 73.608 596.357 73.416 597.149 73.416C598.373 73.416 599.405 73.752 599.669 75.072H602.525C602.213 72.288 599.885 71.256 597.341 71.256C595.085 71.256 592.157 72.096 592.157 74.808C592.157 77.328 594.125 78.048 596.141 78.48C598.133 78.936 600.125 79.104 600.197 80.544C600.269 81.96 598.493 82.176 597.437 82.176C595.973 82.176 594.797 81.624 594.629 80.016H591.893ZM605.082 69.456H607.818V66.864H605.082V69.456ZM605.082 84H607.818V71.592H605.082V84ZM610.367 73.752H616.751L609.887 82.08V84H620.807V81.84H613.343L620.447 73.512V71.592H610.367V73.752ZM624.935 76.704C625.007 74.856 626.303 73.416 628.199 73.416C630.071 73.416 631.199 74.976 631.319 76.704H624.935ZM634.055 78.504C634.511 74.784 632.111 71.256 628.199 71.256C624.503 71.256 622.199 74.28 622.199 77.808C622.199 81.648 624.359 84.336 628.271 84.336C630.959 84.336 633.311 82.824 633.887 80.112H631.295C630.815 81.48 629.879 82.176 628.271 82.176C625.991 82.176 624.935 80.448 624.935 78.504H634.055Z" fill="black"/>
<path d="M1062.44 84H1065.18V78.096C1065.18 75.336 1066.69 73.848 1068.54 73.848C1068.92 73.848 1069.33 73.896 1069.71 73.968V71.328C1069.45 71.304 1069.33 71.256 1068.68 71.256C1067.02 71.256 1065.37 72.672 1065.06 73.992H1065.01V71.592H1062.44V84ZM1081.77 71.592H1079.04V78.792C1079.04 80.712 1078.27 82.176 1075.99 82.176C1074.48 82.176 1073.61 81.384 1073.61 79.2V71.592H1070.88V79.464C1070.88 82.728 1072.25 84.336 1075.51 84.336C1076.88 84.336 1078.37 83.52 1079.04 82.272H1079.09V84H1081.77V71.592ZM1084.66 84H1087.39V76.68C1087.39 74.856 1088.57 73.416 1090.39 73.416C1092.03 73.416 1092.75 74.256 1092.82 76.2V84H1095.55V75.48C1095.55 72.672 1093.87 71.256 1091.16 71.256C1089.53 71.256 1088.14 72.096 1087.3 73.464L1087.25 73.416V71.592H1084.66V84ZM1097.77 80.016C1097.84 82.944 1100.12 84.336 1103.26 84.336C1105.83 84.336 1108.81 83.256 1108.81 80.304C1108.81 77.856 1106.79 77.136 1104.8 76.68C1102.78 76.248 1100.77 76.032 1100.77 74.688C1100.77 73.608 1102.23 73.416 1103.02 73.416C1104.25 73.416 1105.28 73.752 1105.54 75.072H1108.4C1108.09 72.288 1105.76 71.256 1103.22 71.256C1100.96 71.256 1098.03 72.096 1098.03 74.808C1098.03 77.328 1100 78.048 1102.02 78.48C1104.01 78.936 1106 79.104 1106.07 80.544C1106.14 81.96 1104.37 82.176 1103.31 82.176C1101.85 82.176 1100.67 81.624 1100.5 80.016H1097.77ZM1117.64 84H1120.37V66.864H1117.64V84ZM1133.75 74.856C1133.75 72.24 1131.2 71.256 1128.78 71.256C1126.02 71.256 1123.33 72.192 1123.14 75.384H1125.87C1125.99 74.04 1127.07 73.416 1128.61 73.416C1129.69 73.416 1131.18 73.656 1131.18 75.096C1131.18 76.728 1129.45 76.464 1127.46 76.848C1125.15 77.112 1122.68 77.616 1122.68 80.712C1122.68 83.136 1124.7 84.336 1126.93 84.336C1128.39 84.336 1130.15 83.88 1131.23 82.824C1131.44 83.952 1132.21 84.336 1133.34 84.336C1133.79 84.336 1134.66 84.168 1135.07 84.024V82.128C1134.92 82.152 1134.8 82.176 1134.68 82.176H1134.39C1133.89 82.176 1133.75 81.912 1133.75 81.24V74.856ZM1131.01 79.824C1131.01 81.552 1129.14 82.176 1127.94 82.176C1126.98 82.176 1125.42 81.84 1125.42 80.592C1125.42 79.152 1126.47 78.72 1127.65 78.528C1128.87 78.312 1130.17 78.336 1131.01 77.784V79.824ZM1136.69 84H1139.43V78.096C1139.43 75.336 1140.94 73.848 1142.79 73.848C1143.17 73.848 1143.58 73.896 1143.96 73.968V71.328C1143.7 71.304 1143.58 71.256 1142.93 71.256C1141.27 71.256 1139.62 72.672 1139.31 73.992H1139.26V71.592H1136.69V84ZM1156.6 71.592H1153.86V73.296H1153.82C1153.12 71.88 1151.7 71.256 1150.14 71.256C1146.62 71.256 1144.53 74.136 1144.53 77.472C1144.53 81.024 1146.16 84 1150.1 84C1151.63 84 1153.05 83.184 1153.82 81.816H1153.86V83.712C1153.86 85.752 1152.88 86.88 1150.67 86.88C1149.28 86.88 1148.03 86.616 1147.7 85.056H1144.96C1145.22 87.96 1148.01 88.92 1150.5 88.92C1154.44 88.92 1156.6 87.096 1156.6 83.352V71.592ZM1150.53 81.84C1148.25 81.84 1147.26 79.752 1147.26 77.736C1147.26 75.672 1148.1 73.416 1150.53 73.416C1152.9 73.416 1153.86 75.384 1153.86 77.52C1153.86 79.656 1152.95 81.84 1150.53 81.84ZM1161.49 76.704C1161.56 74.856 1162.86 73.416 1164.75 73.416C1166.63 73.416 1167.75 74.976 1167.87 76.704H1161.49ZM1170.61 78.504C1171.07 74.784 1168.67 71.256 1164.75 71.256C1161.06 71.256 1158.75 74.28 1158.75 77.808C1158.75 81.648 1160.91 84.336 1164.83 84.336C1167.51 84.336 1169.87 82.824 1170.44 80.112H1167.85C1167.37 81.48 1166.43 82.176 1164.83 82.176C1162.55 82.176 1161.49 80.448 1161.49 78.504H1170.61Z" fill="black"/>
<path d="M0 13L1168 13" stroke="black" stroke-width="3"/>
<circle cx="535.5" cy="13.5" r="13.5" fill="black"/>
</svg>
