<svg width="165" height="68" viewBox="0 0 165 68" fill="none" xmlns="http://www.w3.org/2000/svg">
<path d="M156.537 65.9879L132.091 0.0436492L132.074 0H131.592L126.558 13.5513L117.393 38.2218L117.372 38.2023C114.196 35.4563 109.714 33.7397 104.071 33.1005L102.349 32.9264L104.057 32.7119C113.364 31.0732 119.62 25.3141 119.62 18.3755C119.62 8.86063 110.486 2.21932 97.4025 2.21932H70.1798V2.70108H78.0899V51.8663L58.8791 0.0434876L58.8618 0H58.3793L53.3452 13.5513L33.929 65.8182L33.8095 65.8318C33.4777 65.8718 33.1495 65.9037 32.8248 65.9278C32.3364 65.9653 31.8508 65.9878 31.3637 65.9878H11.7452L49.0373 2.70092L49.3145 2.2253H3.70474V21.8028H4.18869C4.27449 12.2669 9.94257 2.70092 22.4657 2.70092H37.574L0 66.4619H50.6194V47.7054H50.1354C50.0694 56.0168 45.2607 63.9112 34.8036 65.6937L34.4711 65.7493L42.435 44.3022H64.7444L72.7831 65.9879H64.8532V66.4621H95.978V65.9879H88.0141V33.2761H97.2033C106.555 33.2761 111.918 37.3694 111.918 44.503V50.3056C111.918 50.945 111.962 51.8797 112.011 52.6615V52.69L107.072 65.9849H100.62V66.459H113.976V65.9849H107.593L112.091 53.8785C112.1 53.9955 112.105 54.066 112.105 54.066L112.229 55.1569L112.349 55.8786C113.099 60.3428 114.842 63.6244 117.527 65.6321L117.912 65.9068C119.952 67.2963 122.487 68 125.45 68C129.376 68 131.993 67.0412 134.154 64.7845L133.871 64.5233C131.88 66.3239 130.209 67.0533 128.115 67.0533C124.548 67.0533 122.682 62.8141 122.682 58.6337V50.5036C122.701 48.4863 122.378 46.48 121.727 44.566L121.639 44.314V44.3049H137.956L145.995 65.9908H138.065V66.465H165V65.9908L156.537 65.9879ZM42.6126 43.8279L53.6027 14.2447L64.5683 43.8279H42.6126ZM88.0189 32.8003V2.70092H95.0331C104.403 2.70092 109.35 8.15836 109.35 18.4777C109.35 29.4526 106.51 32.8003 97.2033 32.8003H88.0189ZM121.449 43.8279L121.401 43.7108C120.676 41.9804 119.62 40.4015 118.29 39.0591L117.831 38.6089L117.782 38.5639L126.809 14.2447L137.774 43.8279H121.449Z" fill="black"/>
</svg>
